<svg xmlns="http://www.w3.org/2000/svg" viewBox="0 0 3000 2500" width="3000" height="2500"><g transform="translate(140.0 162.5) rotate(0.0 1150.0 1087.5) scale(2.52217319215012 2.517914819231081)"><svg width="911.912" height="863.81" viewBox="0 0 911.912 863.81"><path d="M56.292 646.36c-18.266-26.31-59.325-84.771-45.195-94.745 9.257-6.534 80.554 32.376 94.661 41.757 14.107 9.38-35.854 72.597-49.467 52.989z"/><path d="M63.433 654.106c-4.309 0-7.936-1.877-10.427-5.465l-1.173-1.69C14.716 593.518-5.431 558.385 8.79 548.347c2.59-1.828 7.98-5.633 49.567 14.581 21.444 10.423 42.593 22.443 49.615 27.113 2.553 1.698 5.3 5.272 3.887 12.659-3.265 17.076-27.946 47.419-44.956 51.026a16.726 16.726 0 0 1-3.471.379zM13.306 554.96c-.894.79-4.786 6.277 11.064 34.758 10.29 18.489 24.578 39.058 34.033 52.669l1.175 1.692c.904 1.303 2.284 2.538 5.666 1.822 13.591-2.882 36.061-30.595 38.758-44.703.344-1.797.403-3.922-.459-4.496-6.557-4.36-26.634-15.784-47.276-25.893-34.812-17.048-42.134-16.062-42.961-15.849z"/><g fill="#fff"><path d="M122.791 829.346c14.147-70.033 49.482-226.002 49.482-226.002 7.827-28.25-101.009-97.378-114.055-64.253C42.135 579.93 4 803.54 4 835.817c0 13.613 10.909 22.839 31.056 22.87 19.126.029 82.158-1.733 87.735-29.341z"/><path d="M104.005 759.103c15.478 1.964 300.163 36.275 328.546 37.74s29.063 62.966 8.712 62.966-392.389-1.185-410.154-1.123c-17.765.063 31.414-104.846 72.896-99.583zm623.128-309.312s43.561-12.419 74.054-2.723c7.099-7.065 23.959-39.75 42.472-44.895 8.82-2.451 14.702 2.423 6.534 13.313s-32.252 49.393-37.027 59.897c-2.723 5.99-83.125 4.661-88.756 5.445-21.712 3.024-10.029-28.114 2.723-31.037z"/><path d="M679.791 444.903c16.669-22.88 45.164-34.862 77.834-35.406 10.359-.173 32.849-32.21 43.561-21.654 8.712 8.586-25.048 41.801-25.048 41.801-14.361 11.736-34.101 27.527-51.729 33.516-17.628 5.99-53.589-5.945-44.619-18.257zm128.815 25.336s44.148-16.947 54.111-25.349c9.962-8.402 39.205-31.128 45.195-38.116s-45.195-12.767-63.912 1.935c-15.188 11.93-47.104 66.63-35.393 61.53z"/><path d="M598.628 647.994s76.436-191.253 81.164-203.091c6.844-17.136 48.835 17.036 44.619 35.925-1.239 5.548-33.1 183.466-54.996 302.155-3.471 18.815-10.448 22.376-34.406 22.376h-86.685c-14.361 0 43.43-139.152 50.305-157.364z"/><path d="M428.239 415.486s77.277 92.023 79.455 94.745c2.178 2.723-11.435 13.068-9.257 15.246s104.547 108.358 104.547 108.358c13.953 13.914 32.389 78.167 23.818 114.46-8.902 37.692-21.844 57.062-44.169 57.062H100.738s164.26-466.139 171.237-481.185c5.959-12.85 91.172 55.916 97.072 61.536s51.971 21.178 59.191 29.777zM301.376 299.491s49.107 32.46 92.387 20.808c28.267-7.61 33.242-59.971 30.428-114.838-3.329-64.921-10.561-93.775-38.752-138.186-10.196-16.062-74.611-46.742-134.488-7.901-44.588 28.924-73.291 157.095-14.427 218.245 13.872 14.411 53.655 15.475 64.851 21.872z"/><path d="M348.055 305.901s-29.158 100.879-33.949 112.085-96.447-49.384-93.673-56.043 28.854-84.123 31.073-91.168c2.22-7.045 99.48 25.022 96.549 35.125z"/></g><path d="M373.651 326.845c-37.637.002-72.739-22.866-74.48-24.017a4 4 0 0 1 4.41-6.675c.405.267 34.829 22.657 70.303 22.658 6.31 0 12.649-.708 18.84-2.375 21.395-5.76 30.895-44.064 27.474-110.77-3.4-66.317-12.967-93.381-38.206-136.366a4 4 0 1 1 6.899-4.051c27.956 47.611 36.035 76.397 39.298 140.007 1.615 31.506.391 57.135-3.642 76.174-5.174 24.434-15.181 38.811-29.742 42.731-7.004 1.885-14.125 2.683-21.152 2.684z"/><path d="m335.501 55.622 64.666 38.835s8.947 20.709 10.269 24.696 14.102-20.989 7.463-33.568c-15.814-29.963-65.753-77.637-85.728-81.266-19.976-3.63-110.698 24.669-131.506 35.489-17.553 9.127-29.963 33.293-34.125 63.256s4.162 131.506 29.963 149.817c25.802 18.311 50.505 34.125 50.505 34.125s-38.021-72.411-38.021-108.201 39.119-24.969 47.442 2.497c22.636-11.652 67.418-80.325 79.07-125.68z"/><path d="M247.009 291.006a3.993 3.993 0 0 1-2.155-.631c-.248-.159-25.081-16.075-50.665-34.232-28.199-20.012-35.619-124.764-31.609-153.629 4.443-31.997 17.992-56.765 36.241-66.255C219.162 25.682 310.872-3.619 332.887.384c14.521 2.639 37.332 23.114 46.466 31.794 18.698 17.772 34.432 37.039 42.085 51.54 6.21 11.766-1.294 30.64-5.469 36.528-.726 1.024-2.657 3.745-5.729 3.285-1.689-.252-3.035-1.418-3.6-3.119-.975-2.938-6.868-16.763-9.636-23.189l-59.06-35.468c-13.385 44.798-55.717 110.766-79.683 123.103a4.002 4.002 0 0 1-5.66-2.396c-4.521-14.918-18.632-23.692-28.461-22.234-7.191 1.066-11.152 7.663-11.152 18.577 0 34.391 37.187 105.626 37.563 106.342a4.001 4.001 0 0 1-3.543 5.86zM327.567 7.967c-24.79 0-105.087 25.006-125.055 35.39-15.955 8.297-27.921 30.823-32.009 60.258-4.459 32.102 5.112 129.537 28.316 146.004 14.312 10.157 28.389 19.61 38.003 25.96-11.036-22.832-31.833-69.481-31.833-96.774 0-14.919 6.722-24.822 17.98-26.49 12.157-1.805 28.361 6.956 35.498 23.012 22.245-16.069 62.137-77.798 73.159-120.699a4 4 0 0 1 5.933-2.434l64.666 38.835a4.002 4.002 0 0 1 1.612 1.843c.266.614 4.841 11.209 7.885 18.616 2.886-6.504 5.942-17.774 2.639-24.034-15.396-29.17-64.209-75.8-82.905-79.198-1.072-.195-2.38-.288-3.891-.288z"/><path d="M188.181 72.269c-4.705-16.646-47.442-46.61-74.908-28.299S95.794 191.29 97.459 201.278s16.646 4.994 16.646 4.994 12.681 74.908 30.062 71.579c17.38-3.329 13.219-15.814 13.219-15.814s14.149 4.162 18.794-12.634c5.408-19.557 16.351-161.748 12.002-177.134z"/><path d="M143.06 281.955c-1.798 0-4.044-.485-6.451-2.157-13.695-9.509-22.957-53.912-25.699-68.664-3.564.585-8.54.777-12.352-1.519-2.737-1.648-4.481-4.304-5.044-7.68-.96-5.756-3.794-40.786-3.071-76.271.976-47.949 7.91-76.554 20.611-85.022 11.298-7.531 26.355-8.415 42.399-2.492 18.001 6.646 35.306 21.464 38.577 33.031 4.547 16.085-6.135 158.094-11.996 179.288-1.801 6.511-5.101 11.14-9.808 13.758-2.988 1.662-5.991 2.199-8.448 2.27a14.728 14.728 0 0 1-1.974 6.328c-2.672 4.563-7.681 7.576-14.886 8.956a9.885 9.885 0 0 1-1.859.176zm-28.961-79.681a4.005 4.005 0 0 1 3.95 3.329c3.828 22.596 13.49 60.937 23.122 67.624 1.268.88 1.976.745 2.242.695 4.724-.905 7.989-2.657 9.444-5.067 1.591-2.635.754-5.481.717-5.601-.471-1.413-.11-2.947.924-4.019s2.584-1.458 4.016-1.036c1.691.465 10.469 2.219 13.81-9.863 5.121-18.516 16.096-160.52 12.009-174.979-2.28-8.069-16.66-21.43-33.648-27.702-9.609-3.548-23.514-6.141-35.191 1.643-5.851 3.9-15.846 19.289-17.051 78.528-.713 35.056 2.145 69.875 2.964 74.793.224 1.34.77 1.833 1.273 2.138 2.473 1.496 7.92.455 10.17-.284.408-.134.831-.2 1.251-.2zm211.729 184.815a4 4 0 0 1-3.838-5.134l19.036-64.428a4 4 0 1 1 7.672 2.266l-19.036 64.428a4.002 4.002 0 0 1-3.834 2.868zm-90.954-58.401a4 4 0 0 1-3.809-5.228l12.137-37.681a4 4 0 1 1 7.615 2.453l-12.137 37.681a4.003 4.003 0 0 1-3.807 2.775zm87.307-200.538a4 4 0 0 1-3.128-6.49c20.712-26.037 28.709-63.801 31.632-83.995a4 4 0 0 1 7.918 1.147c-3.039 20.993-11.405 60.319-33.288 87.828a3.993 3.993 0 0 1-3.134 1.51zm-13.31 21.352a3.999 3.999 0 0 1-2.115-7.397c.652-.405 16.23-9.979 37.673-14.65a4 4 0 1 1 1.703 7.817c-20.035 4.364-35.009 13.539-35.158 13.631-.655.406-1.384.6-2.103.6zm74.692-17.745a4.001 4.001 0 0 1-.78-7.923c13.021-2.604 29.801-.139 30.51-.033a4 4 0 0 1-1.186 7.912c-.161-.024-16.12-2.36-27.756-.034a4.01 4.01 0 0 1-.788.078zm-54.296 55.796a7.5 7.5 0 0 1-6.835-4.402 7.498 7.498 0 0 1 3.724-9.926c1.045-.475 10.433-4.667 18.223-5.611a7.5 7.5 0 1 1 1.805 14.891c-4.657.564-11.559 3.352-13.825 4.378a7.472 7.472 0 0 1-3.091.67zm68.856-12.9a7.5 7.5 0 0 1-.982-14.935c3.519-.469 10.999-.163 13.208-.057a7.5 7.5 0 0 1 7.135 7.847 7.484 7.484 0 0 1-7.848 7.135c-3.88-.184-9.004-.258-10.513-.057a7.547 7.547 0 0 1-1.001.067zm-15.862 97.426c-15.263 0-26.396-12.673-26.898-13.254a4.001 4.001 0 0 1-.479-4.54c.721-1.311 7.224-12.936 13.803-17.237 12.163-7.953 23.129-5.221 23.59-5.1a3.999 3.999 0 0 1 2.86 4.88 4.006 4.006 0 0 1-4.853 2.868c-.402-.096-8.192-1.854-17.22 4.048-3.262 2.132-7.307 8.006-9.66 11.825 3.657 3.343 11.948 9.636 21.493 8.33a3.995 3.995 0 0 1 4.506 3.42 4 4 0 0 1-3.42 4.506 27.436 27.436 0 0 1-3.722.254zm73.509 2.697a4 4 0 0 1-2.973-6.676c2.239-2.488 4.505-10.908 1.569-23.909-1.849-8.184-20.33-21.925-31.546-28.664a4 4 0 1 1 4.121-6.857c3.269 1.964 32.03 19.6 35.228 33.76 2.985 13.217 1.641 25.394-3.425 31.023a3.994 3.994 0 0 1-2.975 1.324z"/><path d="M440.333 292.961a8.5 8.5 0 0 1-5.64-14.861l15.44-13.686a8.5 8.5 0 1 1 11.275 12.722l-15.44 13.686a8.468 8.468 0 0 1-5.635 2.139zm162.651 344.875a3.986 3.986 0 0 1-2.88-1.224c-1.023-1.062-102.367-106.178-104.495-108.306-3.733-3.734.317-8.265 4.235-12.646 1.086-1.214 2.729-3.052 3.604-4.287-7.854-9.438-53.495-63.809-78.272-93.315a4 4 0 0 1 6.127-5.144c3.156 3.759 77.333 92.091 79.516 94.819 3.233 4.041-.771 8.519-5.01 13.26-.891.996-2.084 2.331-2.889 3.357 13.18 13.604 99.041 102.661 102.944 106.709a4 4 0 0 1-2.88 6.776zM504.57 512.731h.01z"/><path d="M598.627 651.995a4 4 0 0 1-3.722-5.463c3.078-7.838 75.457-192.086 81.331-203.463 16.413-31.784 57.996-37.182 81.323-37.571 2.697-.045 9.3-5.636 14.121-9.719 10.364-8.777 23.26-19.703 32.313-10.784 1.2 1.183 2.63 3.301 2.629 6.677-.006 12.942-23.058 36.278-27.679 40.825a4 4 0 0 1-5.611-5.702c10.5-10.335 25.288-28.066 25.29-35.126 0-.734-.184-.915-.244-.975-3.845-3.784-14.064 4.87-21.528 11.191-7.3 6.182-13.604 11.521-19.158 11.613-36.655.611-63.754 12.727-74.348 33.242-4.551 8.815-54.97 136.456-80.993 202.718a4.002 4.002 0 0 1-3.725 2.539zM432.554 759.264a4.001 4.001 0 0 1-3.897-4.917c4.958-21.071 13.131-40.103 19.099-54 4.304-10.021 8.021-18.675 8.021-22.406 0-7.309-16.238-93.75-27.152-150.069a4 4 0 1 1 7.854-1.522c2.794 14.418 27.299 141.163 27.299 151.591 0 5.376-3.449 13.406-8.669 25.563-5.852 13.625-13.865 32.285-18.663 52.675a4.003 4.003 0 0 1-3.891 3.085z"/><path d="M669.419 789.212a4 4 0 0 1-3.975-4.488c14.919-121.552 53.804-300.605 55.136-305.046 1.454-4.847 7.069-5.501 46.259-5.374 15.311.049 38.135.123 43.137-1.534 5.727-11.827 28.816-48.749 37.019-59.685 3.349-4.465 3.213-6.693 3-7.005-.225-.327-1.957-.974-5.263-.054-11.977 3.329-24.18 20.968-32.254 32.64-3.485 5.037-6.237 9.016-8.469 11.236a4.002 4.002 0 0 1-4.033.977c-28.97-9.211-71.323 2.636-71.746 2.758a4 4 0 0 1-2.192-7.694c1.776-.507 42.805-11.997 73.838-3.437 1.62-2.027 3.704-5.039 6.023-8.392 9.252-13.375 21.924-31.693 36.69-35.797 6.208-1.725 11.444-.509 14.011 3.25 1.607 2.354 3.329 7.603-3.205 16.317-8.049 10.732-32.012 49.087-36.586 59.152-2.096 4.609-9.576 5.398-49.995 5.266-14.339-.047-33.603-.108-38.926 1.122-4.163 17.884-40.452 187.793-54.503 302.272a4 4 0 0 1-3.965 3.513z"/><path d="M837.668 459.78a4 4 0 0 1-2.99-6.656l50.096-56.419a4 4 0 0 1 5.982 5.312l-50.096 56.419a3.99 3.99 0 0 1-2.992 1.344zm25.051-10.89a3.998 3.998 0 0 1-2.581-7.057l45.194-38.116a4 4 0 1 1 5.158 6.115l-45.194 38.116a3.984 3.984 0 0 1-2.577.942z"/><path d="M492.448 735.66c18.31-3.829 46.249-3.262 53.872-3.807s38.803 8.496 56.664 13.064c13.953 3.568 9.87 15.437-7.283 13.995-17.152-1.442-32.671-5.856-54.724-3.649s-29.045 3.649-42.915 9.172c-9.394 3.741-20.339-25.695-5.615-28.775z" fill="#fff"/><path d="M432.551 796.843c14.276-1.167 51.729-60.094 59.897-61.183s38.832 26.271 49.344 29.103 68.543 27.961 74.261 37.328c5.717 9.367-19.004 50.546-31.037 43.561-12.034-6.985-61.379-39.345-66.09-34.803-12.687 12.232-63.572 47.838-73.495 47.838-9.928 0-24.927-60.859-12.879-61.844z" fill="#fff"/><path d="M428.883 801.016c-28.893 0-161.531-16.947-261.597-30.079-10.283-1.349-17.756-2.33-18.69-2.427a4 4 0 0 1 .264-7.991c.484 0 .524 0 19.468 2.486 163.96 21.517 252.661 31.57 263.615 29.884 6.489-.999 23.327-21.716 34.469-35.425 15.104-18.584 20.808-25.142 25.508-25.769 6.207-.828 28.504-2.218 43.259-3.138 4.943-.308 8.903-.555 10.856-.694 5.372-.388 17.607 2.721 37.12 7.881 7.628 2.017 14.833 3.922 20.724 5.274a4 4 0 0 1-1.789 7.797c-6.02-1.381-13.286-3.302-20.979-5.337-13.399-3.543-30.11-7.948-34.505-7.636-1.967.141-5.952.389-10.93.699-13.602.848-36.269 2.261-42.498 3.057-3.073 1.398-13.166 13.817-20.558 22.911-18.075 22.241-30.587 36.921-39.46 38.287-.964.148-2.402.219-4.276.219z"/><path d="M616.048 806.091c-.801 0-1.609-.24-2.313-.739-.528-.375-53.09-37.479-80.358-37.479h-.091a4 4 0 0 1-.011-8h.096c29.816 0 82.756 37.364 84.997 38.956a3.999 3.999 0 0 1-2.321 7.261zm-17.424 23.415c-.73 0-1.47-.2-2.133-.619-9.298-5.876-17.729-12.244-25.882-18.402-14.664-11.075-27.327-20.64-37.572-21.281a4 4 0 0 1 .498-7.985c12.647.79 26.201 11.028 41.896 22.882 8.022 6.06 16.318 12.325 25.334 18.023a4 4 0 0 1-2.141 7.382zM441.263 863.81H58.218a4 4 0 0 1 0-8h383.045c2.309-.124 14.424-5.835 37.011-20.632 20.941-13.719 32.617-23.24 33.915-25.354 4.666-7.723 18.793-.312 52.342 19.77 9.297 5.565 18.078 10.822 21.942 12.334a4 4 0 0 1-2.916 7.45c-4.485-1.755-13.128-6.929-23.135-12.919-12.709-7.607-36.032-21.568-42.003-21.634-8.277 10.312-66.376 48.986-77.156 48.986zm-406.207-1.123C13.433 862.687 0 852.391 0 835.817c0-31.307 37.974-256.238 54.496-298.192a4 4 0 0 1 7.444 2.932C45.586 582.082 8.001 804.808 8.001 835.817c0 11.816 10.114 18.87 27.056 18.87a4 4 0 0 1 0 8zm94.75-82.187a4 4 0 0 1-3.937-4.732c12.953-69.623 42.265-172.491 42.56-173.522a4 4 0 0 1 7.691 2.198c-.293 1.027-29.502 103.54-42.386 172.788a4.001 4.001 0 0 1-3.928 3.269z"/><ellipse cx="222.824" cy="190.948" fill="#fff" rx="45.764" ry="57.266" transform="matrix(.98307313 -.18321361 .18321361 .98307313 -31.211 44.055)"/><path d="M226.455 251.88c-10.744 0-21.398-4.188-30.639-12.168-11.164-9.64-18.946-23.72-21.914-39.647-6.188-33.21 10.723-64.319 37.698-69.346 13.232-2.467 26.814 1.605 38.231 11.466 11.164 9.64 18.946 23.72 21.914 39.646 6.188 33.211-10.723 64.319-37.698 69.346-2.523.47-5.062.703-7.593.703zm-7.305-113.858c-2.033 0-4.065.186-6.084.562-22.639 4.219-36.679 31.142-31.298 60.016 2.637 14.148 9.482 26.599 19.277 35.057 9.54 8.239 20.738 11.667 31.538 9.656 22.639-4.219 36.679-31.142 31.298-60.016-2.637-14.148-9.482-26.599-19.277-35.057-7.757-6.698-16.611-10.218-25.454-10.218z"/><ellipse cx="215.808" cy="190.36" rx="23.928" ry="33.168" transform="matrix(.98307313 -.18321361 .18321361 .98307313 -31.222 42.759)"/><path d="M255.13 15.411c-10.637 11.648-26.173 34.608-29.495 56.58-2.811 18.588 6.104 73.512 6.104 73.512l-21.64 3.061s-12.207-54.1-9.988-72.55c2.22-18.45 13.096-41.373 19.039-48.586.347-1.214 35.2-13.109 35.98-12.017z" fill="#fff"/><circle cx="372.11" cy="515.217" r="9.444"/><circle cx="384.77" cy="566.674" r="9.444"/><path d="M184.797 666.507c-14.157-40.294-138.851-116.526-173.7-114.892 5.445-9.801 99.102-173.155 107.269-176.422 8.168-3.267 46.284-7.623 46.284-7.623 24.299-3.783 52.285-3.935 81.41 31.792s32.767 97.773 15.598 139.729-76.862 127.416-76.862 127.416z" fill="#fff"/><path d="M360.131 479.383a3.996 3.996 0 0 1-3.231-1.643c-23.188-31.792-49.934-66.066-56.52-71.055-4.069 2.596-14.212 17.304-21.724 30.394a4 4 0 1 1-6.94-3.981c.198-.344 4.903-8.528 10.504-16.793 10.354-15.278 15.048-18.198 18.89-17.873 2.465.205 5.842.487 34.962 38.229 7.675 9.948 15.157 19.947 20.341 26.935.205-6.858.542-15.941 1.071-25.063 2.282-39.319 5.784-41.101 8.341-42.402 8.4-4.276 19.553 10.652 25.451 19.933a3.999 3.999 0 1 1-6.751 4.291c-5.141-8.08-11.811-15.603-14.786-16.823-2.914 7.027-5.157 41.854-5.608 71.911a4 4 0 0 1-4 3.94zM184.797 670.508a4.002 4.002 0 0 1-3.773-2.675c-6.014-17.116-35.7-44.37-77.475-71.127-38.905-24.919-76.886-41.813-92.265-41.096a3.978 3.978 0 0 1-3.587-1.887 4 4 0 0 1-.098-4.051c2.967-5.339 27.911-48.891 52.668-90.755 50.187-84.868 54.209-86.477 56.613-87.439 8.423-3.369 43.359-7.431 47.315-7.883a4 4 0 1 1 .908 7.948c-10.284 1.176-38.042 4.729-44.929 7.24-9.314 8.072-83.402 135.637-102.464 169.234 21.794 3.087 59.674 22.431 90.152 41.953 16.432 10.525 70.813 47.053 80.706 75.211a4 4 0 0 1-3.773 5.327zm-64.456-291.861z"/><path d="M258.851 449.791c-8.712-37.571-91.478-92.567-91.478-92.567s37.571-34.849 43.017-31.037c5.445 3.812 46.828 38.116 88.1 57.718" fill="#fff"/><path d="M258.847 453.792a4.003 4.003 0 0 1-3.893-3.097c-8.254-35.595-88.98-89.598-89.795-90.139a4 4 0 0 1-.505-6.264c.095-.088 9.601-8.892 19.654-17.112 18.809-15.378 24.65-16.879 28.376-14.269.915.64 2.567 1.921 5.07 3.86 13.102 10.15 47.904 37.113 82.451 53.522a4 4 0 1 1-3.432 7.226c-35.33-16.781-70.631-44.129-83.919-54.425a378.057 378.057 0 0 0-4.044-3.108c-4.851 1.232-20.909 14.019-35.01 26.775 17.312 11.976 81.039 58.024 88.946 92.127a4 4 0 0 1-3.9 4.904z"/></svg></g><g transform="translate(1775.0 2140.0) rotate(0.0 -183.75 95.0) scale(-2.7503573593575763 2.729100833093938)"><svg width="133.619" height="69.62" viewBox="0 0 133.619 69.62"><path d="M11.251 65.62c-14.4 0-12.884-56.842 56.842-61.389 70.713-4.612 67.453 61.389 53.432 61.389z"/><path d="M121.525 69.62H11.251C4.834 69.62.32 63.373.016 54.075-.629 34.255 16.899 3.561 67.833.239c34.485-2.242 50.786 11.525 58.395 23.476 9.083 14.263 8.959 31.115 4.232 39.729-2.949 5.375-6.865 6.177-8.936 6.177zM75.066 7.998c-2.145 0-4.38.073-6.712.225C23.089 11.174 7.468 37.106 8.013 53.815c.157 4.821 1.803 7.805 3.239 7.805h110.273c.326 0 1.107-.54 1.922-2.025 3.014-5.492 3.837-19.327-3.967-31.583-5.958-9.355-18.448-20.014-44.414-20.014z"/></svg></g><g transform="translate(2342.5 625.0) rotate(0.0 253.75 856.25) scale(2.4883915919331985 2.4974187263383247)"><svg width="203.947" height="685.708" viewBox="0 0 203.947 685.708"><path d="M133.855 262.021h14.215v419.687h-14.215z"/><path d="M148.07 685.708h-14.215a4 4 0 0 1-4-4V262.021a4 4 0 0 1 4-4h14.215a4 4 0 0 1 4 4v419.687a4 4 0 0 1-4 4zm-10.215-8h6.215V266.021h-6.215z"/><path d="m95.53 300.72 3.32-24.508 43.261 5.86-3.32 24.506z"/><path d="M138.798 310.581c-.179 0-.359-.012-.542-.037l-43.261-5.859a4 4 0 0 1-3.427-4.501l3.319-24.507c.143-1.051.697-2.003 1.541-2.646s1.907-.925 2.96-.781l43.261 5.86a4 4 0 0 1 3.427 4.501l-3.319 24.506a4 4 0 0 1-3.959 3.463zm-38.766-13.287 35.334 4.786 2.246-16.579-35.334-4.786-2.246 16.58zm99.915 388.414H4a4 4 0 0 1 0-8h195.947a4 4 0 0 1 0 8z"/><path d="m51.533 505.573-8.061 7.152L112.375 4c15.302 18.506 22.167 42.099 19.017 65.355L79.309 453.897c-2.69 19.863-12.51 38.132-27.776 51.676z"/><path d="M43.472 516.724a4 4 0 0 1-3.963-4.537L108.412 3.463a4 4 0 0 1 7.047-2.012c15.928 19.263 23.181 44.208 19.898 68.441L83.274 454.434c-2.812 20.76-13.143 39.986-29.085 54.131l-8.061 7.152a4 4 0 0 1-2.656 1.008zM115.01 14.349 48.884 502.576c14.509-12.875 23.907-30.353 26.461-49.216l52.084-384.542c2.558-18.887-1.937-38.266-12.418-54.469z"/></svg></g><g transform="translate(1402.5 2095.0) rotate(0.0 131.25 82.5) scale(2.6086697275058133 2.597566159222934)"><svg width="100.626" height="63.521" viewBox="0 0 100.626 63.521"><g fill="#fff"><path d="M97.929 28.877c-.78-.65-19.636-16.083-65.444-28.61a7.493 7.493 0 0 0-8.28 11.287 7.495 7.495 0 0 0-.018 14.274C45.511 32.709 75.233 49.33 75.53 49.5a7.5 7.5 0 0 0 9.176-11.632c2.41 1.565 3.579 2.5 3.616 2.532a7.5 7.5 0 0 0 9.607-11.52ZM9.805 22.755A7.5 7.5 0 1 0 5.2 37.03C25.312 43.521 41.841 60.97 42 61.139A7.5 7.5 0 0 0 52.965 50.9c-.776-.828-19.272-20.437-43.16-28.145Z"/></g></svg></g><g transform="translate(277.5 2317.5) rotate(0.0 985.0 10.0) scale(2.506833347755048 2.5)"><svg width="785.852" height="8" viewBox="0 0 785.852 8"><path d="M781.852 8H4a4 4 0 0 1 0-8h777.852a4 4 0 0 1 0 8Z"/></svg></g></svg>