<svg height="94.417mm" viewBox="0 0 198.715 267.638" width="70.102mm" xmlns="http://www.w3.org/2000/svg"><path d="m19.17 6.931c-.497-.287-.985-.529-1.466-.738l.042-4.09-12.889 7.977c-.007.004-.014.008-.021.012l-.011.006c-2.115 1.22-3.423 3.828-3.423 7.542v134.083c0 3.813 1.38 8.051 3.595 11.784l126.201-91.897z" fill="#dfdcea"/><path d="m4.999 164.358c-.057 0-.114-.005-.171-.017-.234-.049-.438-.193-.56-.399-2.395-4.037-3.714-8.377-3.714-12.219v-134.083c0-3.908 1.367-6.848 3.849-8.277l12.896-7.984c.264-.163.595-.17.865-.018s.436.439.433.749l-.037 3.538c.353.169.695.35 1.036.546l112.029 64.68c.25.144.409.404.424.691.016.287-.116.563-.348.732l-126.202 91.899c-.146.106-.322.162-.5.162zm11.882-160.721-11.575 7.165c-1.988 1.146-3.052 3.563-3.052 6.838v134.083c0 3.289 1.065 7 3.012 10.539l124.377-90.569-110.897-64.026c-.447-.259-.898-.485-1.379-.695-.313-.136-.515-.446-.511-.788l.026-2.547z" fill="#6d6a88"/><path d="m194.076 256.644-7.807-1.757 4.003-135.674c0-7.455-5.266-16.539-11.763-20.289l-47.309-27.314-126.201 91.898c2.116 3.566 4.994 6.673 8.168 8.505l160.139 92.424c3.4 1.963 7.661.643 9.809-.764v.002l10.961-7.03z" fill="#bcb2cd"/><path d="m177.23 266.275c-1.496 0-3.001-.323-4.349-1.102l-160.139-92.424c-3.186-1.84-6.195-4.968-8.474-8.808-.224-.377-.124-.862.23-1.121l126.201-91.897c.271-.197.635-.217.925-.049l47.309 27.314c6.721 3.88 12.188 13.312 12.188 21.025l-3.983 134.998 7.124 1.603c.334.075.591.344.65.682s-.089.678-.378.863l-10.961 7.031c-.017.011-.034.021-.051.03-1.66 1.071-3.966 1.854-6.293 1.854zm-171.097-102.541c2.076 3.29 4.703 5.952 7.459 7.543l160.139 92.424c3.038 1.753 6.998.519 8.918-.739.021-.014.042-.025.063-.037l9.193-5.897-5.822-1.31c-.397-.089-.675-.447-.663-.854l4.003-135.674c0-7.147-5.086-15.919-11.338-19.527l-46.83-27.038z" fill="#6d6a88"/><path d="m84.097 103.137c-1.15-2.03-3.727-2.743-5.758-1.593l-75.566 57.29c.954 2.613 2.361 5.167 4.068 7.405l75.663-57.345c2.03-1.15 2.743-3.728 1.593-5.758z" fill="#fff"/><path d="m177.799 266.465c-1.776 0-3.736-.577-5.719-1.722l-159.338-91.994c-6.721-3.881-12.188-13.313-12.188-21.026v-134.083c0-3.908 1.367-6.848 3.849-8.277l12.896-7.984c.263-.163.594-.17.865-.018.27.152.436.439.433.749l-.037 3.538c.353.169.695.35 1.036.546l159.337 91.994c6.721 3.88 12.188 13.312 12.188 21.025v132.374l3.618 4.524c.152.19.215.437.173.676-.041.239-.183.45-.39.578l-12.962 8.031c-1.09.713-2.37 1.067-3.762 1.067zm-160.918-262.828-11.575 7.165c-1.988 1.146-3.052 3.563-3.052 6.838v134.083c0 7.173 5.086 15.944 11.338 19.554l159.338 91.994c2.962 1.711 5.777 1.962 7.718.691l12.166-7.536-3.206-4.009c-.12-.151-.186-.338-.186-.531v-132.672c0-7.173-5.086-15.944-11.338-19.553l-159.338-91.994c-.447-.259-.898-.485-1.38-.695-.313-.136-.515-.446-.511-.788z" fill="#6d6a88"/><path d="m185.349 94.974-159.338-91.994c-6.497-3.751-11.763-.748-11.763 6.707v134.083c0 7.455 5.267 16.539 11.763 20.289l102.335 59.083 33.823 19.528 23.18 13.383c6.497 3.751 11.763.748 11.763-6.707v-134.083c0-7.455-5.266-16.539-11.763-20.289z" fill="#ededed"/><path d="m190.631 258.525c-1.767 0-3.708-.582-5.706-1.735l-159.338-91.995c-6.721-3.88-12.188-13.312-12.188-21.025v-134.083c0-3.906 1.365-6.846 3.844-8.277 2.499-1.44 5.764-1.146 9.194.834l159.338 91.994c6.721 3.88 12.188 13.312 12.188 21.025v134.083c0 3.906-1.365 6.846-3.844 8.277-1.043.602-2.221.901-3.488.901zm-169.896-256.315c-.974 0-1.865.223-2.643.672-1.931 1.115-2.994 3.531-2.994 6.805v134.083c0 7.173 5.086 15.944 11.338 19.553l159.338 91.994c2.882 1.663 5.543 1.959 7.494.834 1.931-1.115 2.994-3.531 2.994-6.805v-134.083c0-7.173-5.086-15.944-11.338-19.553l-159.337-91.994c-1.732-1-3.385-1.506-4.851-1.506z" fill="#6d6a88"/><path d="m197.113 140.615v-25.352c0-7.455-5.267-16.539-11.763-20.29l-159.339-91.993c-6.497-3.751-11.763-.748-11.763 6.707v25.352l182.864 105.577z" fill="#bcb2cd"/><path d="m197.112 141.464c-.147 0-.293-.037-.425-.113l-182.864-105.576c-.263-.152-.425-.433-.425-.736v-25.352c0-3.906 1.365-6.846 3.844-8.277 2.499-1.44 5.764-1.146 9.194.834l159.338 91.994c6.721 3.88 12.188 13.312 12.188 21.025v25.352c0 .304-.162.584-.425.736-.131.076-.278.113-.425.113zm-182.014-106.917 181.164 104.595v-23.879c0-7.173-5.086-15.944-11.338-19.553l-159.337-91.994c-2.883-1.664-5.544-1.961-7.494-.834-1.931 1.114-2.994 3.531-2.994 6.805v24.86z" fill="#6d6a88"/><path d="m56.802 82.103-23.63-13.643c-.963-.556-1.744-.111-1.744.995v25.371c0 1.106.781 2.453 1.744 3.009l15.176 8.762 5.016 2.896 3.438 1.985c.963.556 1.744.111 1.744-.995v-25.371c0-1.106-.781-2.453-1.744-3.009z" fill="#ededed"/><path d="m57.589 112.566c-.391 0-.806-.118-1.212-.353l-23.629-13.643c-1.217-.701-2.17-2.347-2.17-3.745v-25.37c0-.837.34-1.514.932-1.855.595-.344 1.356-.299 2.088.124l23.629 13.643c1.216.703 2.169 2.348 2.169 3.745v25.371c0 .837-.34 1.513-.932 1.854-.265.152-.563.229-.875.229zm-25.201-43.495c-.016 0-.026 0-.031.003-.013.013-.08.123-.08.382v25.37c0 .806.616 1.867 1.319 2.272l23.63 13.643c.234.136.367.132.39.123.013-.013.08-.122.08-.381v-25.371c0-.805-.617-1.866-1.32-2.272l-23.629-13.643c-.183-.105-.304-.126-.359-.126z" fill="#6d6a88"/><path d="m98.242 105.439-23.63-13.643c-.963-.556-1.744-.111-1.744.995v25.371c0 1.106.781 2.453 1.744 3.009l15.176 8.762 5.016 2.896 3.438 1.985c.963.556 1.744.111 1.744-.995v-25.371c0-1.106-.781-2.453-1.744-3.009z" fill="#ededed"/><path d="m99.028 135.902c-.391 0-.805-.117-1.211-.352l-23.629-13.643c-1.217-.703-2.17-2.348-2.17-3.745v-25.371c0-.836.34-1.512.932-1.854.595-.344 1.356-.3 2.087.123l23.629 13.643c1.237.715 2.169 2.325 2.169 3.746v25.37c0 .836-.34 1.512-.932 1.854-.265.153-.563.229-.876.229zm-25.199-43.495c-.016 0-.026.002-.031.004-.013.013-.08.122-.08.381v25.371c0 .805.617 1.866 1.32 2.272l23.629 13.643c.232.136.365.13.39.122.013-.013.08-.122.08-.381v-25.37c0-.805-.617-1.867-1.32-2.273l-23.629-13.643c-.182-.105-.303-.126-.359-.126z" fill="#6d6a88"/><path d="m139.683 128.776-23.63-13.643c-.963-.556-1.744-.111-1.744.995v25.371c0 1.106.781 2.453 1.744 3.009l15.176 8.762 5.016 2.896 3.438 1.985c.963.556 1.744.111 1.744-.995v-25.371c0-1.106-.781-2.453-1.744-3.009z" fill="#bcb2cd"/><path d="m140.47 159.239c-.391 0-.806-.118-1.212-.353l-23.629-13.643c-1.216-.702-2.169-2.347-2.169-3.745v-25.371c0-.837.34-1.513.932-1.854.595-.342 1.356-.298 2.087.124l23.629 13.643c1.216.702 2.169 2.347 2.169 3.745v25.371c0 .837-.34 1.513-.932 1.854-.265.152-.563.229-.875.229zm-25.201-43.495c-.016 0-.026 0-.031.003-.013.013-.079.122-.079.381v25.371c0 .806.616 1.867 1.319 2.272l23.63 13.643c.234.135.368.131.39.123.013-.013.079-.122.079-.381v-25.371c0-.806-.616-1.867-1.319-2.272l-23.63-13.643c-.183-.105-.304-.126-.359-.126z" fill="#6d6a88"/><path d="m181.124 152.112-23.63-13.643c-.963-.556-1.744-.111-1.744.995v25.371c0 1.106.781 2.453 1.744 3.009l15.176 8.762 5.016 2.896 3.438 1.985c.963.556 1.744.111 1.744-.995v-25.371c0-1.106-.781-2.453-1.744-3.009z" fill="#ededed"/><path d="m181.91 182.575c-.391 0-.806-.118-1.212-.353l-23.629-13.642c-1.217-.703-2.17-2.349-2.17-3.746v-25.37c0-.836.34-1.512.932-1.854.596-.342 1.356-.299 2.087.123l23.63 13.643c1.236.715 2.169 2.324 2.169 3.745v25.371c0 .837-.34 1.513-.932 1.854-.265.152-.563.229-.875.229zm-25.199-43.495c-.016 0-.026.002-.031.004-.013.012-.08.122-.08.381v25.37c0 .806.617 1.868 1.32 2.273l23.629 13.642c.234.135.367.132.39.123.013-.013.079-.122.079-.381v-25.371c0-.805-.616-1.866-1.319-2.272l-23.629-13.643c-.182-.105-.303-.126-.359-.126z" fill="#6d6a88"/><path d="m56.802 128.3-23.63-13.643c-.963-.556-1.744-.111-1.744.995v25.371c0 1.106.781 2.453 1.744 3.009l15.176 8.762 5.016 2.896 3.438 1.985c.963.556 1.744.111 1.744-.995v-25.371c0-1.106-.781-2.453-1.744-3.009z" fill="#bcb2cd"/><path d="m57.589 158.763c-.391 0-.806-.118-1.212-.353l-23.629-13.643c-1.217-.701-2.17-2.347-2.17-3.745v-25.371c0-.837.34-1.513.932-1.854.595-.343 1.356-.299 2.088.124l23.629 13.643c1.217.702 2.17 2.347 2.17 3.745v25.371c0 .837-.34 1.513-.932 1.854-.265.152-.563.229-.875.229zm-25.201-43.495c-.015 0-.025 0-.031.003-.013.013-.079.122-.079.381v25.371c0 .806.616 1.867 1.319 2.272l23.63 13.643c.234.135.367.13.39.123.013-.013.08-.122.08-.381v-25.371c0-.806-.616-1.867-1.319-2.272l-23.629-13.643c-.183-.105-.304-.126-.36-.126z" fill="#6d6a88"/><path d="m98.242 151.636-23.63-13.643c-.963-.556-1.744-.111-1.744.995v25.371c0 1.106.781 2.453 1.744 3.009l15.176 8.762 5.016 2.896 3.438 1.985c.963.556 1.744.111 1.744-.995v-25.371c0-1.106-.781-2.453-1.744-3.009z" fill="#ededed"/><path d="m99.029 182.099c-.391 0-.806-.118-1.212-.353l-23.629-13.642c-1.217-.703-2.17-2.349-2.17-3.746v-25.37c0-.836.34-1.512.932-1.854.595-.345 1.356-.3 2.087.123l23.629 13.643c1.216.703 2.169 2.348 2.169 3.745v25.371c0 .837-.34 1.513-.932 1.854-.265.152-.563.229-.875.229zm-25.2-43.495c-.016 0-.026.002-.031.004-.013.013-.08.122-.08.381v25.37c0 .805.617 1.867 1.32 2.273l23.629 13.642c.234.136.368.132.39.123.013-.013.08-.122.08-.381v-25.371c0-.805-.617-1.866-1.32-2.272l-23.629-13.643c-.182-.105-.303-.126-.359-.126z" fill="#6d6a88"/><path d="m139.683 174.973-23.63-13.643c-.963-.556-1.744-.111-1.744.995v25.371c0 1.106.781 2.453 1.744 3.009l15.176 8.762 5.016 2.896 3.438 1.985c.963.556 1.744.111 1.744-.995v-25.371c0-1.106-.781-2.453-1.744-3.009z" fill="#ededed"/><path d="m140.469 205.435c-.391 0-.805-.117-1.211-.352l-23.63-13.643c-1.237-.715-2.169-2.324-2.169-3.745v-25.371c0-.836.34-1.513.932-1.854.594-.345 1.355-.299 2.087.123l23.63 13.643c1.216.703 2.169 2.349 2.169 3.746v25.37c0 .836-.34 1.513-.932 1.854-.265.153-.563.229-.876.229zm-25.199-43.495c-.016 0-.026.002-.031.004-.013.012-.08.122-.08.381v25.371c0 .805.616 1.866 1.319 2.272l23.629 13.643c.234.135.367.131.39.122.013-.012.08-.122.08-.381v-25.37c0-.805-.616-1.867-1.319-2.273l-23.629-13.643c-.182-.105-.303-.126-.358-.126z" fill="#6d6a88"/><path d="m181.124 198.309-23.63-13.643c-.963-.556-1.744-.111-1.744.995v25.371c0 1.106.781 2.453 1.744 3.009l15.176 8.762 5.016 2.896 3.438 1.985c.963.556 1.744.111 1.744-.995v-25.371c0-1.106-.781-2.453-1.744-3.009z" fill="#bcb2cd"/><path d="m181.91 228.772c-.391 0-.806-.118-1.212-.353l-23.629-13.643c-1.217-.701-2.17-2.347-2.17-3.745v-25.371c0-.837.34-1.513.932-1.854.595-.344 1.356-.299 2.088.124l23.629 13.643c1.216.702 2.169 2.347 2.169 3.745v25.371c0 .837-.34 1.513-.932 1.854-.265.152-.563.229-.875.229zm-25.2-43.495c-.015 0-.025 0-.031.003-.013.013-.079.122-.079.381v25.371c0 .806.616 1.867 1.319 2.272l23.63 13.643c.234.135.367.13.39.123.013-.013.079-.122.079-.381v-25.371c0-.806-.616-1.867-1.319-2.272l-23.629-13.643c-.183-.105-.304-.126-.36-.126z" fill="#6d6a88"/></svg>