<svg xmlns="http://www.w3.org/2000/svg" viewBox="0 0 1941 3000" width="1941" height="3000"><g transform="translate(98.8235294117647 44.11764705882353) rotate(0.0 877.0588235294118 1458.5294117647059) scale(1.7611835153222966 1.76457991718039)"><svg width="995.988" height="1653.118" viewBox="0 0 995.988 1653.118"><g fill="#fff"><path d="M839.342 306.223s-35.774-51.537-24.406-75.032c11.369-23.495 8.337-124.295-6.59-152.337S698.22 2.307 659.421 12.32c-41.357 10.673-71.241 79.519-72.598 117.396-3.141 87.663 75.783 190.657 115.444 189.72 9.069-.214 19.422-3.833 29.729-9.849l11.698 33.772 95.648-37.137z"/><path d="M986.22 391.866c-3.41-68.589-23.116-97.011-37.137-116.18s-43.567-12.994-58.717-5.015c-22.088 11.631-90.3 15.979-106.251 20.395-39.348 10.891-83.216 32.831-111.821 41.619-36.521 10.293-63.084 3.201-74.495 12.191-15.773 12.428-154.231 284.969-154.231 284.969l-225.095 38.652 6.822 72.998h358.702c16.523 0 30.462 21.892 29.723 38.399-1.119 24.993-1.711 40.182-1.711 40.182s103.39 34.358 192.316 24.758 149.558-50.162 149.558-50.162l-10.349-57.23c37.439-1.31 44.972-21.667 47.612-41.281 2.653-19.705-1.516-235.705-4.927-304.295z"/><path d="M244.241 686.445s-67.453 10.334-81.095 12.229c-34.157 4.744-53.521-37.839-62.147-36.379-24.632 4.168-84.884-10.611-94.358-14.779-9.474-4.168-9.847 10.637 5.684 21.979s66.976 30.293 82.654 42.544 87.493 20.614 87.493 20.614c10.054-2.192 70.105-4.56 70.105-4.56l-8.337-41.647zm4.931 579.48-25.93 67.576s3.536 46.36 29.073 49.896 61.682-38.11 41.253-51.86c12.894-22.394 39.681-58.146 39.681-58.146l-84.077-7.465zm329.345 160.313 5.079 110.86-62.448-23.614-24.035-100.592z"/></g><path d="M583.596 1541.099c-.477 0-.956-.085-1.414-.259l-62.449-23.614a3.998 3.998 0 0 1-2.476-2.812l-24.034-100.593a4 4 0 0 1 4.537-4.877l81.404 13.346a4 4 0 0 1 3.349 3.764l5.079 110.861a3.999 3.999 0 0 1-3.996 4.183zm-59.05-30.606 54.776 20.713-4.652-101.545-72.269-11.849 22.144 92.681zM593.08 274.007c-14.685-124.203 33.154-159.298 50.479-165.508 41.937 8.589 91.2 28.295 130.463 63.225 4.75-21.197 22.379-37.456 35.402-18.602 17.1 24.756-10.588 79.794-18.41 93.819 0 0 2.021 18.695 4.547 27.284s44.463 10.611 54.568 9.6 24.397-7.063 24.397-7.063 3.393-138.453-11.26-157.653-37.389-.505-37.389-.505 2.178-21.12-1.011-41.432C819.886 45.446 698.178-9.282 647.013 6.94c-41.432 13.137-65.179 92.968-68.211 133.389-4.243 56.579 25.768 196.547 35.874 233.432"/><path d="M614.675 377.763a4 4 0 0 1-3.855-2.944c-4.693-17.13-13.658-56.507-21.518-99.498a3.981 3.981 0 0 1-.193-.845l-.072-.611c-9.015-49.562-16.486-103.638-14.222-133.834 3.064-40.86 27.034-122.966 70.99-136.903 36.004-11.414 104.834 10.314 147.958 36.993 14.823 9.17 32.937 22.934 35.055 36.431 2.048 13.045 1.954 26.251 1.587 34.402 4.942-2.604 11.94-5.193 19.241-4.347 6.633.769 12.285 4.159 16.8 10.075 15.071 19.748 12.43 145.862 12.079 160.177a4 4 0 0 1-2.439 3.585c-.606.257-14.971 6.302-25.559 7.36-5.507.552-18.927.246-31.002-1.209-22.508-2.71-26.681-7.432-27.801-11.242-2.598-8.831-4.603-27.205-4.687-27.983a4.005 4.005 0 0 1 .483-2.378c13.357-23.95 32.308-69.771 18.613-89.598-3.476-5.033-7.234-7.192-11.175-6.43-6.996 1.36-14.319 11.521-17.033 23.633a4 4 0 0 1-6.562 2.114c-45.081-40.105-98.756-56.053-127.477-62.061-9.977 3.988-23.829 15.404-33.979 36.114-14.732 30.06-19.069 71.941-12.889 124.489 7.84 42.897 16.829 82.341 21.516 99.45a4 4 0 0 1-3.861 5.058zm184.691-104.778c.312.381 3.525 3.682 22.322 5.81 11.168 1.264 23.252 1.53 28.044 1.051 7.026-.703 16.497-4.122 20.857-5.814 1.232-55.179-.54-139.44-10.502-152.495-3.184-4.172-6.89-6.455-11.331-6.979-10.01-1.177-20.242 7.058-20.345 7.141a4.005 4.005 0 0 1-4.429.423 4 4 0 0 1-2.084-3.927c.021-.207 2.083-20.869-.983-40.402-1.267-8.071-12.698-19.322-31.36-30.868C747.76 21.068 680.997.365 648.223 10.755c-39.82 12.625-62.598 92.114-65.431 129.875-1.279 17.054.625 41.943 4.174 69.333 1.764-25.251 7.024-46.896 15.758-64.718 14.542-29.67 33.898-38.509 39.485-40.512a3.994 3.994 0 0 1 2.152-.153c28.228 5.782 81.506 21.191 127.543 60.018 4.365-12.461 12.7-21.77 21.527-23.486 4.136-.802 12.139-.608 19.284 9.736 18.643 26.989-10.024 83.132-17.583 96.911.494 4.252 2.218 18.284 4.234 25.226z"/><path d="M701.742 323.443c-13.234 0-30.263-9.872-48.051-27.878-19.205-19.44-36.91-45.644-49.856-73.785-14.757-32.079-22.022-63.963-21.011-92.207 1.424-39.731 39.512-94.357 74.191-120.45a4 4 0 0 1 4.809 6.393c-32.523 24.47-69.684 77.448-71.006 114.343-2.058 57.448 32.934 124.017 68.563 160.083 16.261 16.461 31.853 25.773 42.79 25.495 13.709-.324 31.44-9.252 47.431-23.884a4 4 0 1 1 5.4 5.902c-17.376 15.9-37.056 25.612-52.643 25.98-.205.005-.412.007-.619.007z"/><path d="M646.834 127.658a4 4 0 0 1-3.763-2.646c-4.668-12.959-.819-65.617 4.715-81.023a4.002 4.002 0 0 1 7.53 2.704c-4.943 13.763-8.785 64.315-4.718 75.608a4 4 0 0 1-3.763 5.357z" fill="#fff"/><path d="M686.917 179.741a4.01 4.01 0 0 1-2.729-1.076c-1.622-1.5-1.695-4.059-.195-5.681.846-.915 8.925-8.935 31.741-8.853a4 4 0 0 1-.015 8c-.119.005-.232 0-.347 0-18.989 0-25.495 6.277-25.559 6.341a3.925 3.925 0 0 1-2.896 1.27zm-58.349 9.306a3.987 3.987 0 0 1-2.215-.672c-2.487-1.658-9.467-2.676-13.628-2.869a4 4 0 0 1-3.811-4.179 3.995 3.995 0 0 1 4.176-3.813c1.251.057 12.381.659 17.701 4.205a4 4 0 0 1-2.223 7.329zm63.534 32.166a38.96 38.96 0 0 1-2.667-.091 4 4 0 0 1-3.717-4.264 3.996 3.996 0 0 1 4.264-3.717c16.097 1.1 26.625-11.094 26.729-11.217 1.425-1.68 3.946-1.898 5.632-.479s1.911 3.93.497 5.621c-.504.603-12.058 14.147-30.738 14.147zm-55.63 4.723c-14.197 0-25.073-6.073-25.537-6.336a4 4 0 0 1 3.941-6.963c.181.101 9.978 5.469 22.225 5.294h.062a4 4 0 0 1 .06 7.999c-.25.004-.501.006-.75.006zm62.947 48.753c-1.638 0-2.797-.066-3.237-.096a4 4 0 0 1 .537-7.982c4.669.306 17.877-.131 22.898-5.749a4 4 0 0 1 5.964 5.332c-6.74 7.539-19.921 8.494-26.162 8.494z"/><path d="M825.877 118.604v46.231c0 3.032 11.874 7.579 15.411 0 2.573-5.513 8.486-36.819 11.52-53.48-13.057-4.158-26.93 7.249-26.93 7.249z" fill="#fff"/><path d="M834.279 172.993c-1.148 0-2.345-.133-3.577-.407-4.392-.975-8.824-3.749-8.824-7.75v-46.231c0-1.196.536-2.33 1.459-3.09.635-.521 15.727-12.734 30.685-7.97a3.998 3.998 0 0 1 2.721 4.528c-3.964 21.772-9.234 48.893-11.83 54.455-1.938 4.152-5.854 6.466-10.634 6.466zm-4.402-9.214c.998.635 3.263 1.445 5.28 1.139 1.601-.243 2.18-1.075 2.506-1.773 1.617-3.467 5.514-21.535 10.502-48.646-7.584-.62-15.177 3.966-18.289 6.123v43.158z"/><path d="M896.862 225.936a4 4 0 0 1-3.985-3.714c-3.615-50.51-22.823-90.922-35.309-103.486a4 4 0 0 1 5.675-5.639c12.434 12.512 33.641 53.048 37.613 108.554a3.998 3.998 0 0 1-3.994 4.285zM745.541 430.057c-13.122 0-26.079-15.19-38.511-45.146-8.984-21.647-15.284-45.824-15.507-52.316a4 4 0 0 1 3.86-4.135 3.998 3.998 0 0 1 4.135 3.86c.149 4.312 5.555 27.005 14.901 49.525 10.606 25.555 21.95 40.212 31.123 40.213 8.177 0 18.159-5.665 28.106-15.952 20.618-21.322 44.016-66.428 42.102-123.378a4 4 0 0 1 3.863-4.132c2.185-.083 4.058 1.655 4.132 3.863 1.999 59.453-22.64 106.76-44.346 129.208-11.468 11.859-23.492 18.391-33.856 18.391zm-88.75 210.608-.119-.001a4 4 0 0 1-3.882-4.115l8.084-278.4c.064-2.208 1.931-3.942 4.115-3.882a4 4 0 0 1 3.882 4.115l-8.084 278.4a4 4 0 0 1-3.996 3.884zm127.324-14.146a4.004 4.004 0 0 1-3.766-5.349c48.942-136.734 80.589-313.509 80.583-344.067a4 4 0 0 1 8-.002c.006 30.915-31.825 209.237-81.051 346.765a4.003 4.003 0 0 1-3.766 2.653z"/><path d="M225.29 745.496a4 4 0 0 1-3.978-3.628l-6.822-72.998a4 4 0 0 1 3.306-4.314l223.116-38.313c5.717-11.231 37.403-73.391 70.314-136.081 73.569-140.132 81.493-146.375 84.097-148.427 6.678-5.261 15.473-5.497 26.609-5.794 12.635-.339 29.94-.802 52.438-8.971a3.998 3.998 0 0 1 5.125 2.395 4 4 0 0 1-2.395 5.125c-23.718 8.611-41.772 9.095-54.955 9.448-10.031.269-17.279.462-21.872 4.082-11.065 8.718-97.645 174.4-153.141 283.638a4 4 0 0 1-2.889 2.131l-221.444 38.026 6.478 69.311a3.999 3.999 0 0 1-3.987 4.372zm490.362.517c-9.924 0-24.045-8.289-36.504-15.602-5.838-3.427-13.705-8.044-16.51-8.603-7.38 5.649-34.646 22.364-35.844 23.098a4 4 0 0 1-4.178-6.822c10.361-6.347 31.153-19.33 35.681-23.039 4.373-3.583 11.233.444 24.901 8.467 11.007 6.46 24.705 14.501 32.455 14.501 14.33 0 190.995-3.458 227.248-4.545 34.58-1.038 41.719-18.8 44.282-37.841 2.545-18.91-1.365-231.33-4.957-303.562-3.43-68.982-23.253-96.083-36.37-114.017-12.179-16.649-46.619-5.25-69.409 2.292l-.664.22a3.997 3.997 0 0 1-5.054-2.541 4 4 0 0 1 2.541-5.054l.663-.22c26.487-8.766 62.763-20.772 78.379.58 12.849 17.566 34.354 46.967 37.903 118.342 3.253 65.417 7.661 284.478 4.896 305.027-2.719 20.2-11.084 43.543-51.971 44.77-36.283 1.089-213.136 4.549-227.488 4.549z"/><path d="M749.752 745.496a4 4 0 0 1-3.874-3.017c-14.691-57.885-25.833-73.494-31.167-77.646-2.693-2.097-4.963-3.021-6.072-2.478-2.252 1.108-3.792 7.908-3.766 13.318a4.002 4.002 0 0 1-3.976 4.022c-2.199.059-4.008-1.761-4.024-3.968-.02-2.743.282-16.626 8.224-20.545 4.159-2.052 9.047-.928 14.528 3.338 10.914 8.496 22.355 36.082 34.007 81.991a4 4 0 0 1-3.88 4.985zm128.464-117.335a4 4 0 0 1-3.976-3.609l-13.289-135.284a4 4 0 0 1 3.59-4.372c2.194-.207 4.156 1.392 4.372 3.59l13.289 135.284a4 4 0 0 1-3.986 4.392z"/><path d="M709.21 662.2a4 4 0 0 1 0-8c44.984 0 102.745-15.983 133.776-24.57 5.938-1.643 11.067-3.063 14.924-4.042 24.428-6.204 34.978 1.827 42.682 7.688.423.322.839.638 1.25.947a4 4 0 1 1-4.8 6.4c-.426-.32-.857-.647-1.294-.98-7.117-5.416-15.181-11.553-35.869-6.301-3.775.958-8.865 2.367-14.76 3.999-31.397 8.688-89.838 24.859-135.909 24.859zm8.32 19.744c-7.054 0-16.572-.701-26.136-3.55-8.691-2.589-20.033-7.346-31.001-11.946-10.68-4.479-21.723-9.112-25.497-9.509-20.29-2.133-63.101 16.547-63.53 16.736a4 4 0 0 1-3.219-7.324c1.834-.806 45.188-19.724 67.587-17.369 4.706.495 13.612 4.156 27.753 10.087 10.271 4.308 21.913 9.191 30.191 11.657 16.712 4.979 33.898 2.663 34.069 2.64 2.181-.309 4.209 1.218 4.516 3.405s-1.213 4.208-3.4 4.517c-.37.052-4.792.656-11.334.656z"/><path d="M564.451 703.849a4.002 4.002 0 0 1-3.813-2.794 3.998 3.998 0 0 1 2.607-5.02c27.852-8.813 56.111-21.613 56.394-21.741a4 4 0 0 1 3.311 7.283c-.286.13-28.968 13.124-57.291 22.085a3.998 3.998 0 0 1-1.208.188zm28.426 29.28a3.999 3.999 0 0 1-2.214-7.334l38.274-25.389a4 4 0 0 1 4.421 6.667l-38.274 25.389a3.982 3.982 0 0 1-2.207.667zm-429.954-30.455c-23.951 0-40.61-16.784-51.646-27.904-3.595-3.622-8.056-8.116-9.769-8.505-25.456 4.204-86.063-10.506-96.477-15.088a4 4 0 1 1 3.222-7.322c9.676 4.258 68.555 18.479 92.08 14.496 5.071-.854 9.665 3.774 16.622 10.784 10.703 10.783 25.352 25.54 45.969 25.54h.225a4 4 0 0 1 .019 8h-.243zm588.745 119.294s-366.559-40.371-385.417 0c-9.595 20.541-132.008 441.992-132.008 441.992s9.429 21.216 21.216 27.109c11.786 5.893 106.078-7.072 114.329-21.935s141.437-299.835 141.437-299.835 138.425 63.742 317.056 63.742c57.754 0 118.912-11.155 133.056-96.744 9.341-56.525-1.388-116.896-11.706-157.001l-197.962 42.672z"/><path d="M267.845 1296.514c-6.346 0-11.493-.525-14.176-1.867-12.921-6.46-22.673-28.142-23.082-29.062a4.004 4.004 0 0 1-.186-2.74c5.002-17.221 122.61-421.985 132.226-442.569 3.22-6.893 14.145-16.396 71.597-19.333 32.888-1.681 77.307-1.045 132.022 1.893 88.916 4.773 176.807 14.176 185.212 15.087l197.33-42.536a4.003 4.003 0 0 1 4.717 2.914c10.554 41.023 21.165 101.847 11.778 158.649-6.651 40.25-23.719 67.502-52.178 83.313-26.77 14.872-59.394 16.779-84.824 16.779-92.729 0-174.404-17.412-226.592-32.02-46.188-12.927-78.126-26.023-88.496-30.487-16.048 34.328-132.087 282.453-139.908 296.541-5.824 10.493-39.262 17.508-58.675 20.755-11.96 2.001-32.422 4.683-46.764 4.683zm-29.344-32.875c3.031 6.333 10.757 19.858 18.746 23.853 3.658 1.83 25.17 1.612 56.042-3.551 33.102-5.538 50.678-12.563 53-16.748 8.09-14.573 139.98-296.739 141.312-299.587a4 4 0 0 1 5.296-1.939c.345.158 35.101 16.035 91.13 31.704 51.666 14.449 132.512 31.672 224.253 31.672 59.041 0 115.545-11.314 129.109-93.397 8.881-53.742-.654-111.451-10.688-151.625l-194.19 41.859c-.42.092-.851.114-1.281.066-.916-.101-92.63-10.141-185.442-15.123-167.214-8.975-192.712 5.989-195.913 12.839-9.079 19.436-123.49 412.854-131.374 439.978z"/><path d="M638.125 986.586s-31.517 54.218-38.546 62.861 8.6 15.715 0 32.216-14.886 11.001-12.529 29.073c2.357 18.073 25.288 340.236 25.288 340.236s-95.22-26.716-105.435-22.787-16.501 28.339-16.501 28.339-88.006-422.792-95.077-466.009c-7.072-43.217 6.286-116.293 95.077-110.793s142.223 13.358 142.223 13.358z"/><path d="M490.402 1460.523h-.096a4 4 0 0 1-3.821-3.183c-.88-4.229-88.104-423.371-95.108-466.178-4.382-26.778-1.034-64.271 21.504-89.191 17.649-19.514 43.811-28.345 77.768-26.239 87.942 5.447 142.021 13.314 142.558 13.393a4 4 0 0 1 3.411 3.723l5.5 93.506a4.001 4.001 0 0 1-.535 2.245c-1.293 2.225-31.757 54.589-38.9 63.374-1.523 1.874-1.218 3.231.642 7.775 2.262 5.529 5.36 13.102-.198 23.766-3.457 6.633-6.63 10.036-8.946 12.521-3.29 3.529-4.398 4.718-3.164 14.186 2.346 17.982 24.375 327.31 25.311 340.469a4 4 0 0 1-5.07 4.135c-45.589-12.79-96.56-24.854-102.953-22.893-5.669 2.181-11.624 16.281-14.03 25.592a4 4 0 0 1-3.872 3zm19.547-36.745c5.839 0 19.456 1.808 54.46 10.443 17.754 4.38 35.028 9.05 43.536 11.385-3.076-43.123-22.717-317.916-24.861-334.353-1.646-12.616.667-15.766 5.245-20.676 2.115-2.27 4.749-5.094 7.703-10.763 3.843-7.374 1.922-12.068-.112-17.039-1.839-4.496-4.128-10.091.556-15.852 5.304-6.523 26.548-42.345 37.585-61.306l-5.237-89.029c-12.822-1.745-63.198-8.199-138.669-12.874-31.404-1.947-55.405 6.002-71.34 23.621-20.633 22.814-23.624 57.593-19.543 82.533 6.247 38.173 76.784 377.985 92.122 451.779 3.185-7.153 7.895-14.82 14.073-17.196.721-.277 1.75-.673 4.483-.673zm-280.028-100.727a4 4 0 0 1-3.768-5.344l13.859-38.864a4 4 0 1 1 7.535 2.687l-13.859 38.864a4.002 4.002 0 0 1-3.768 2.657zm63.643 12.486a4 4 0 0 1-3.388-6.12l28.145-45.033a4 4 0 0 1 6.784 4.24l-28.145 45.033a3.998 3.998 0 0 1-3.396 1.88z"/><path d="M303.634 1391.533s-5.617 27.438-39.312 42.414c-19.132 8.503-64.356 13.022-101.136 33.936-21.216 12.064-64.063 13.312-86.11 3.328-26.486-11.994-24.022-34.06-15.702-46.955 8.32-12.896 85.057-37.117 124.74-83.094 28.484-33.002 57.393-27.195 61.553-3.863 3.21 18.002-2.557 32.392 10.781 32.411 22.879.033 41.599-19.063 41.599-32.411 0 0 7.073 40.875 3.587 54.235z" fill="#fff"/><path d="M258.507 1373.945h-.064c-13.284-.019-13.542-11.164-13.771-20.997-.104-4.488-.223-9.575-1.173-14.906-1.204-6.751-4.957-11.264-11.155-13.414-8.592-2.98-19.33-.475-22.663 2.488a4.234 4.234 0 1 1-5.627-6.331c5.837-5.189 19.712-8.1 31.066-4.16 9.049 3.139 14.987 10.216 16.719 19.93 1.064 5.97 1.191 11.403 1.302 16.195.274 11.775 1.054 12.718 5.315 12.724h.05c10.375 0 21.202-4.628 28.972-12.387 5.22-5.212 8.336-11.115 8.336-15.789a4.235 4.235 0 1 1 8.47 0c0 6.976-3.944 14.915-10.822 21.783-9.461 9.448-22.199 14.863-34.954 14.863z"/><path d="M189.075 1344.19c-31.834 30.334-71.164 49.836-108.645 71.79-4.911 3.044-9.769 5.868-13.754 9.629-.601.583-1.057 1.158-1.442 1.878-5.063 8.287-5.619 19.854.991 27.379 8.2 9.417 21.306 13.155 33.48 14.685 19.267 2.097 41.415.884 58.856-7.731 6.454-3.628 13.195-6.982 19.988-9.835 18.175-7.596 37.218-12.625 56.231-17.047 12.658-3.231 27.923-5.385 39.341-11.634 10.443-5.555 18.74-16.011 19.312-28.068-.101-8.944 12.519-9.608 13.224-.674.024.719.024 1.819-.017 2.546-.583 10.595-5.342 20.847-12.611 28.461-14.333 15.554-36.396 18.924-55.86 23.688-22.789 5.462-45.44 11.759-66.252 22.471-1.792.991-4.456 2.335-6.251 3.367-11.67 6.086-24.654 8.588-37.539 9.736-17.876 1.264-36.313.348-53.123-6.585-16.565-6.976-28.099-22.16-24.363-40.771 1.08-5.619 3.271-10.9 6.39-15.651 1.497-2.362 3.825-4.339 5.966-5.948 8.22-5.956 16.706-10.204 25.407-14.98 16.872-9.065 33.695-18.081 49.853-28.286 15.995-10.051 31.5-21.191 44.894-34.476 4.069-3.852 9.914 2.001 5.922 6.057z"/><path d="M428.324 1170.134a4 4 0 0 1-3.692-5.538l99.792-239.789a4 4 0 1 1 7.386 3.074l-99.792 239.789a4.001 4.001 0 0 1-3.694 2.464zm71.205-196.053a4.001 4.001 0 0 1-3.972-3.567l-6.192-56.764a4 4 0 0 1 3.543-4.41 4.006 4.006 0 0 1 4.41 3.543l6.192 56.764a4 4 0 0 1-3.981 4.434zm124.456 45.383c-.285 0-.574-.031-.864-.094-2.072-.456-51.122-11.349-83.649-27.088a4 4 0 0 1 3.485-7.201c31.671 15.325 81.386 26.366 81.885 26.476a4 4 0 0 1-.856 7.908z" fill="#fff"/><path d="m581.59 1481.469 1.7 37.102c8.035-.371 13.729-4.378 15.893-14.067 2.776-12.433-6.185-21.011-17.593-23.035z"/><path d="M584.297 1481.03c6.871-.571 18.083 9.161 14.886 23.474-3.658 16.38-17.115 19.155-35.211 12.934-18.321-6.298-50.972-43.71-56.395-26.103-6.701 21.757-56.209 79.872-87.699 96.476-23.782 12.539-32.205 33.361-21.757 42.941 13.741 12.598 66.17 19.403 92.477 11.75 31.49-9.161 70.007-37.262 80.885-41.842 8.59-3.617 38.79 3.722 46.233-10.02 7.443-13.741-3.504-92.577-21.69-102.77" fill="#fff"/><path d="M583.935 1476.673c9.473-.237 16.736 7.944 19.044 16.344 3.189 11.969-3.015 27.305-15.789 30.415-8.813 2.195-17.46.026-25.601-2.922-9.242-3.934-17.2-10.621-25.017-16.393-4.239-3.011-20.526-16.417-24.756-13.367-.207.223-.449.616-.658 1.137-2.871 8.679-8.084 16.457-13.062 23.743-16.61 23.216-35.668 44.337-57.667 62.598-5.579 4.498-11.373 8.798-17.842 12.382-2.864 1.573-5.937 3.347-8.574 5.28-7.417 5.549-14.836 13.027-16.14 22.493-.26 3.963 2.305 6.477 5.418 8.396 3.659 2.522 7.927 4.141 12.383 5.533 20.49 5.964 48.381 8.094 69.233 3.693 19.62-5.139 37.26-15.661 54.754-25.789l18.053-10.883c3.902-2.231 7.625-4.692 12.051-6.286 10.999-3.643 34.632 2.979 42.258-4.958.517-.594.567-.88.922-1.814.856-2.701 1.283-6.062 1.475-9.061.986-17.043-1.432-34.314-4.952-50.98-2.469-9.941-7.095-28.923-15.654-34.59-4.956-2.958-.833-10.312 4.283-7.623 3.972 2.34 6.408 5.699 8.657 9.321 12.305 21.936 18.302 59.04 18.862 84.246-.111 5.224-.066 10.347-2.239 15.441-5.603 11.782-20.315 13.36-31.459 13.866-3.662.124-7.229.159-10.558.239-2.428.113-4.778.044-6.87.675-2.81 1.269-5.965 3.216-8.78 4.888-24.283 14.63-49.386 31.453-77.527 38.346-24.495 5.144-72.511.845-92.67-14.173-5.995-4.605-7.207-12.561-5.642-19.538 2.859-15.577 15.837-26.353 29.11-33.332 5.869-3.173 11.459-7.216 16.85-11.487 21.435-17.504 40.451-38.4 56.497-60.895 3.9-5.676 7.653-11.541 10.383-17.545.619-1.472 1.317-3.271 1.797-4.768.88-2.451 3.064-5.025 5.783-5.784 9.269-2.775 23.364 9.692 30.663 14.782 7.025 5.19 13.622 10.526 21.203 14.368 4.367 2.017 9.32 3.224 13.979 3.794 9.975 1.213 17.057-2.59 19.091-12.802 1.655-6.817-1.342-14.575-7.706-17.628-1.096-.51-2.243-.739-2.864-.648-6.146.639-6.857-8.33-.724-8.714z"/><path d="M113.884 701.705c-8.716.379-57.656-5.022-62.905 4.547-4.075 7.429.415 16.369 11.368 17.811 28.8 3.789 42.063 14.779 68.211 14.779 28.8 0 51.916-6.189 51.916-6.189" fill="#fff"/><path d="M130.557 742.842c-15.107 0-26.051-3.504-37.638-7.213-9.146-2.928-18.602-5.956-31.095-7.6-6.758-.889-12.124-4.34-14.723-9.467-2.27-4.479-2.135-9.667.37-14.233 4.434-8.084 22.951-8.699 55.57-7.004 4.773.248 8.896.458 10.668.385 2.194-.119 4.074 1.615 4.17 3.822a4 4 0 0 1-3.822 4.17c-2.155.095-6.045-.108-11.431-.388-8.619-.448-20.422-1.061-30.481-.657-15.809.634-17.644 3.491-17.661 3.52-1.233 2.247-1.321 4.651-.248 6.768 1.386 2.735 4.532 4.613 8.631 5.152 13.205 1.737 23.009 4.876 32.49 7.912 11.451 3.666 21.341 6.833 35.199 6.833 27.889 0 50.656-5.993 50.882-6.054a4 4 0 0 1 2.068 7.728c-.965.258-23.958 6.326-52.95 6.326zm834.358 860.65a4 4 0 0 1-4-4v-562.577H838.371a4 4 0 0 1 0-8h126.544a4 4 0 0 1 4 4v566.577a4 4 0 0 1-4 4z"/></svg></g><g transform="translate(51.17647058823529 1311.1764705882354) rotate(0.0 919.4117647058823 114.7058823529411) scale(1.7619648602431002 1.766458752961648)"><svg width="1043.621" height="129.871" viewBox="0 0 1043.621 129.871"><path data-name="аплоуд" d="M1034.965 25.429h-738.23L269.4 0 0 25.429v104.442h1043.621V34.085a8.655 8.655 0 0 0-8.656-8.656Z" fill="#fff"/></svg></g><g transform="translate(44.11764705882353 1406.4705882352941) rotate(0.0 926.4705882352941 94.41176470588232) scale(1.7621650082363036 1.7420912584465642)"><svg width="1051.514" height="108.389" viewBox="0 0 1051.514 108.389"><g data-name="аплоуд"><path fill="#fff" d="M3.947 0h1043.621v104.442H3.947z"/><path d="M1047.568 108.389H3.947a3.947 3.947 0 1 1 0-7.894h1043.621a3.947 3.947 0 1 1 0 7.894Z"/></g></svg></g><g transform="translate(37.05882352941176 1237.0588235294117) rotate(0.0 118.23529411764704 61.76470588235293) scale(1.7697377486382482 1.774338002940331)"><svg width="133.619" height="69.62" viewBox="0 0 133.619 69.62"><path d="M11.251 65.62c-14.4 0-12.884-56.842 56.842-61.389 70.713-4.612 67.453 61.389 53.432 61.389z"/><path d="M121.525 69.62H11.251C4.834 69.62.32 63.373.016 54.075-.629 34.255 16.899 3.561 67.833.239c34.485-2.242 50.786 11.525 58.395 23.476 9.083 14.263 8.959 31.115 4.232 39.729-2.949 5.375-6.865 6.177-8.936 6.177zM75.066 7.998c-2.145 0-4.38.073-6.712.225C23.089 11.174 7.468 37.106 8.013 53.815c.157 4.821 1.803 7.805 3.239 7.805h110.273c.326 0 1.107-.54 1.922-2.025 3.014-5.492 3.837-19.327-3.967-31.583-5.958-9.355-18.448-20.014-44.414-20.014z"/></svg></g><g transform="translate(178.23529411764704 1275.8823529411764) rotate(0.0 121.76470588235294 39.70588235294122) scale(1.72741622344254 1.7145273810022763)"><svg width="140.979" height="46.317" viewBox="0 0 140.979 46.317"><path data-name="аплоуд" d="M68.389 5.18C59.673 5.559 10.733.158 5.484 9.727c-4.075 7.429.415 16.369 11.368 17.811 28.8 3.789 42.063 14.779 68.211 14.779 28.8 0 51.916-6.189 51.916-6.189" fill="#fff"/><path d="M85.063 46.317c-15.106 0-26.051-3.504-37.638-7.214-9.145-2.928-18.602-5.956-31.095-7.6-6.757-.889-12.124-4.339-14.723-9.467-2.27-4.478-2.135-9.666.37-14.233C6.411-.28 24.927-.896 57.547.799c4.773.248 8.894.458 10.668.385 2.197-.12 4.074 1.615 4.17 3.822a4 4 0 0 1-3.822 4.17c-2.152.095-6.045-.108-11.431-.388-8.619-.448-20.421-1.063-30.481-.657-15.809.634-17.644 3.491-17.661 3.52-1.233 2.247-1.321 4.651-.248 6.768 1.386 2.735 4.532 4.613 8.63 5.152 13.205 1.737 23.009 4.876 32.491 7.912 11.451 3.667 21.341 6.833 35.198 6.833 27.89 0 50.656-5.993 50.883-6.054a4 4 0 0 1 2.068 7.728c-.965.258-23.958 6.326-52.951 6.326Z"/></svg></g><g transform="translate(351.1764705882353 905.2941176470588) rotate(0.0 472.9411764705882 225.88235294117646) scale(1.7642911422709893 1.7584345902400926)"><svg width="536.126" height="256.913" viewBox="0 0 536.126 256.913"><path d="M305.095 4H4l57.979 248.913h301.095z"/><path d="M363.074 256.913H61.979a4 4 0 0 1-3.896-3.093L.104 4.907A3.999 3.999 0 0 1 4 0h301.095a4 4 0 0 1 3.896 3.093l57.979 248.913a3.999 3.999 0 0 1-3.896 4.907zm-297.92-8h292.881L301.919 8H9.039l56.116 240.913z"/><path d="M532.126 256.913H321.179a4 4 0 0 1 0-8h210.947a4 4 0 0 1 0 8z"/></svg></g></svg>