<svg xmlns="http://www.w3.org/2000/svg" viewBox="0 0 3000 1894" width="3000" height="1894"><g transform="translate(1986.3157894736842 170.5263157894737) rotate(0.0 472.1052631578948 832.8947368421052) scale(1.5711180510429459 1.573402429810592)"><svg width="600.98" height="1058.718" viewBox="0 0 600.98 1058.718"><g fill="#fff"><path d="m194.033 287.729 49.768 80.842 83.621-74.779-74.779-110.539z"/><path d="M518.917 381.708c-4.547-10.61-109.895-74.274-114.442-77.305s0-15.916-3.79-18.947-59.574-27.145-67.453-30.316c-25.839-10.397-43.004 4.194-89.432 26.526-59.874 28.8-86.149 38.211-112.168 74.095-20.463 28.221-88.976 279.842-99.284 306.358C17.19 642.614-3.721 719.336 6.89 763.294s59.175 78.984 79.017 75.677c24.252-4.042 55.832-30.197 99.537-114.189 32.689 22.281 152.918 21.645 201.486 9.864 23.146 39.522 53.897 63.121 84.24 60.873 40.926-3.032 56.084-110.653 63.663-204.632s-11.369-198.568-15.916-209.179z"/><path d="M596.98 1054.718c0-56.691-17.422-193.087-27.284-250.145-9.853-57.005-49.263-119.708-60.632-124.761l-297.748 59.146c-10.863 31.506-61.494 308.18-62.252 315.759H596.98z"/></g><path d="M312.525 761.698c-55.916 0-99.78-15.652-104.038-19.911a4.005 4.005 0 0 1-1.155-2.466c-.353-3.879-.807-6.861-1.247-9.745-.48-3.147-.933-6.119-1.141-9.655a3.999 3.999 0 0 1 5.064-4.089l1.445.401c46.855 13.017 72.664 20.187 125.94 15.008 41.376-4.023 80.652-16.703 169.556-72.092a4 4 0 0 1 6.115 3.395v16.468a4.003 4.003 0 0 1-1.415 3.053c-36.4 30.823-121.133 72.858-168.131 77.976-10.61 1.156-20.996 1.656-30.993 1.656zm-97.415-25.025c9.446 4.963 63.822 22.355 127.542 15.416 45.09-4.911 126.12-44.954 162.412-74.945v-7.413c-85.964 53.016-125.286 65.428-166.897 69.474-53.078 5.16-80.911-1.962-124.656-14.096.147 1.061.311 2.134.483 3.263.366 2.401.773 5.071 1.116 8.302z"/><path d="M596.98 1058.718H149.064a4 4 0 0 1-3.98-4.398c.437-4.372 13.864-78.286 27.387-149.258 12.768-67.01 29.216-150.448 35.063-167.408a4 4 0 0 1 7.563 2.607c-4.44 12.879-16.784 71.92-34.758 166.246-12.905 67.724-23.772 127.641-26.591 144.209h439.205c-.767-59.199-17.818-191.188-27.199-245.463-9.67-55.947-48.718-117.521-58.314-121.787a4 4 0 1 1 3.249-7.311c13.83 6.147 53.302 71.92 62.949 127.735 9.639 55.772 27.343 193.364 27.343 250.826a4 4 0 0 1-4 4zM305.699 594.382a4 4 0 0 1-3.609-2.27c-31.838-66.312-80.509-166.924-84.101-172.313-3.594-5.391-3.583-26.319-2.94-42.927.673-17.391 2.513-38.222 5.107-45.558a4 4 0 0 1 7.543 2.667c-4.465 12.627-6.795 75.008-3.04 81.399 5.05 7.574 76.512 156.331 84.644 173.268a4 4 0 0 1-3.603 5.732z"/><path d="M266.235 512.54a4 4 0 0 1-3.909-4.868c5.952-26.805 71.971-159.774 72.634-161.1 4.801-9.602 2.762-52.695-.281-63.853a4 4 0 1 1 7.719-2.104c3.222 11.816 5.978 57.016-.281 69.536-13.069 26.139-66.957 136.637-71.979 159.257a4.001 4.001 0 0 1-3.901 3.134zM107.931 808.556c-16.787 0-36.194-24.039-42.41-32.372-8.798-11.794-16.074-40.405-12.885-64.199 2.056-15.332 10.218-21.246 14.901-23.406 7.142-3.296 14.446-2.121 18.516.505 16.463 10.621 37.647 38.86 43.59 58.107 6.775 21.942 4.136 49.394-14.016 59.409-2.458 1.356-5.045 1.956-7.697 1.956zM76.681 694.56c-1.819 0-3.835.38-5.792 1.283-3.898 1.799-8.854 6.244-10.323 17.205-3.155 23.531 4.719 49.439 11.368 58.352 13.197 17.691 30.631 33.27 39.83 28.195 14.257-7.866 15.915-31.655 10.237-50.044-5.401-17.492-25.355-44.114-40.283-53.745-1.181-.762-2.983-1.246-5.036-1.246z"/><path d="M82.742 843.268c-11.181 0-27.232-7.901-42.384-21.122-18.82-16.422-32.436-37.53-37.356-57.914-4.157-17.224-3.958-41.518.534-64.985 1.674-8.744 8.033-37.707 19.595-43.274 1.359-.654 4.123-1.583 7.248-.382 4.101-12.663 12.055-41.054 21.749-75.651 33.253-118.684 61.784-217.869 74.15-229.447a4 4 0 1 1 5.468 5.84c-2.79 2.612-10.513 16.929-30.886 83.455-13.592 44.383-28.805 98.682-41.029 142.311-11.414 40.739-20.43 72.917-23.754 81.469a4 4 0 0 1-6.887 1.005c-1.491-1.919-2.152-1.602-2.589-1.392-4.389 2.113-11.022 15.697-15.208 37.57-4.288 22.403-4.518 45.433-.615 61.604 4.54 18.81 17.239 38.406 34.839 53.763 14.77 12.887 31.005 20.673 39.485 18.934a4 4 0 0 1 1.607 7.837 19.768 19.768 0 0 1-3.968.378z"/><path d="M81.864 632.318S44.475 500.95 40.938 491.855c28.295 1.516 187.453 9.095 187.453 9.095s78.316 325.203 79.832 333.886c-21.753 0-172.8-27.191-172.8-27.191l-12.126-50.021-41.432-125.305z" fill="#fff"/><path d="M308.222 838.836c-21.858 0-167.327-26.142-173.509-27.255a4.002 4.002 0 0 1-3.179-2.994l-12.126-50.021a4 4 0 1 1 7.775-1.885l11.512 47.486c18.701 3.344 133.799 23.804 164.489 26.398-7.658-33.321-52.801-221.201-77.98-325.763-20.729-.988-142.592-6.803-178.65-8.649 8.322 26.759 37.777 130.219 39.158 135.07a4 4 0 1 1-7.694 2.19C65.103 588.038 39.955 500.36 37.211 493.305a4 4 0 0 1 3.942-5.444c27.96 1.498 185.838 9.018 187.429 9.094a4.002 4.002 0 0 1 3.699 3.059c3.199 13.284 78.363 325.427 79.883 334.134a4 4 0 0 1-3.94 4.688z"/><path d="M167.254 712.655c-18.189-.139-50.526 18.695-50.526 18.695s1.516 18.695 0 31.944-25.28 26.091-34.863 14.035c-15.663-19.705-19.912-47.235-16.714-64.168s11.848-44.144 16.209-48.505c9.095-9.095 64.674-32.337 85.895-32.337s18.189 80.476 0 80.337z" fill="#fff"/><path d="M64.559 716.516a4 4 0 0 1-4-4c0-2.169 12.666-45.384 17.972-50.69 10.258-10.258 61.804-33.508 88.723-33.508a4 4 0 0 1 0 8c-26.089 0-74.815 22.914-83.066 31.165-3.281 3.789-14.713 40.508-15.65 45.451a4 4 0 0 1-3.979 3.582zm4-4c0 .121-.005.241-.016.36.019-.161.016-.283.016-.36z"/><path d="M102.577 683.814a4 4 0 0 1-1.05-7.859c6.888-1.879 67.64-18.339 79.542-17.821a4.001 4.001 0 0 1-.347 7.993c-8.062-.352-50.522 10.302-77.09 17.547a4.01 4.01 0 0 1-1.055.142zm14.148 22.737a4 4 0 0 1-1.004-7.873c8.546-2.222 51.517-13.273 58.408-12.749a4 4 0 0 1-.614 7.976c-3.745-.264-31.309 6.152-55.781 12.515-.338.088-.676.13-1.009.13zm-24.259 79.595c-5.613 0-10.427-2.17-13.733-6.328a4 4 0 1 1 6.262-4.978c3.434 4.321 9.187 3.465 12.31 2.571 7.723-2.211 14.797-8.884 15.448-14.573 1.453-12.698.002-30.983-.013-31.166a3.999 3.999 0 0 1 2.329-3.963c.114-.052 11.575-5.267 23.508-10.165 25.5-10.469 28.194-9.39 30.163-8.603a3.999 3.999 0 0 1-2.544 7.571h-.014c-4.282 0-26.159 8.729-45.271 17.333.364 5.809.995 19.373-.21 29.902-1.175 10.265-11.796 18.664-21.194 21.354-2.444.7-4.806 1.044-7.041 1.044zm73.302-69.777.004.002c-.001 0-.003 0-.004-.002z"/><path d="M534.833 590.887c-8.015 93.943-22.737 201.6-63.663 204.632s-78.749-42.371-105.347-107.608c-6.713-16.466-5.388-15.34-5.388-15.34s-6.34.865-8.339-14.641-3.306-44.875 0-51.885c3.306-7.011 53.727-52.872 73.095-51.537 19.369 1.335 27.537 1.263 33.853 4.547s29.905 41.158 33.394 63.653c14.606-23.484 43.908-49.551 42.395-31.821z" fill="#fff"/><path d="M467.139 799.667c-19.77 0-39.847-9.966-58.335-29.025-19.165-19.756-35.337-47.918-46.768-81.441a4 4 0 1 1 7.572-2.582c22.361 65.58 63.06 107.74 101.266 104.91 16.428-1.217 30.14-23.153 40.754-65.2 8.176-32.391 14.462-76.8 19.218-135.764 7.562-93.764-11.178-196.951-15.605-207.282-1.716-3.207-17.688-16.726-105.102-70.654-4.837-2.984-7.193-4.439-7.882-4.899-4.21-2.807-4.07-8.453-3.946-13.435.046-1.833.121-4.848-.281-5.827-5.307-3.581-58.238-27.82-65.641-29.419a4.001 4.001 0 0 1 1.689-7.82c8.757 1.892 64.656 27.542 69.107 31.102 3.359 2.688 3.239 7.504 3.124 12.163-.05 2.002-.142 5.7.465 6.632.751.49 3.634 2.269 7.566 4.694 91.53 56.467 106.087 69.252 108.255 74.311 4.554 10.627 23.892 116.025 16.226 211.076-4.791 59.413-11.148 104.251-19.435 137.079-11.713 46.403-27.388 69.7-47.92 71.22-1.44.107-2.882.16-4.326.16zm-68.953-511.088h.01z"/><path d="M385.525 644.909a4.002 4.002 0 0 1-3.872-3.006c-3.988-15.53-14.863-57.152-17.271-63.172-.603-1.508-1.796-4.151-3.178-7.211-7.691-17.036-15.149-34.394-14.529-43.064l.118-1.663c3.499-49.602 6.548-59.118 9.321-62.012 4.795-5.003 33.073-16.079 41.626-19.354a4 4 0 0 1 2.861 7.471c-16.568 6.345-35.915 14.728-38.639 17.347-1.099 1.711-3.918 10.743-7.189 57.111l-.118 1.67c-.527 7.377 9.177 28.873 13.841 39.203 1.479 3.276 2.647 5.863 3.314 7.532 3.092 7.73 17.001 61.854 17.592 64.154a4 4 0 0 1-3.877 4.996zm55.327-41.685a4.001 4.001 0 0 1-3.842-2.896c-3.199-11.124-12.413-41.624-16.578-49.063a4.002 4.002 0 0 1-.235-3.412c10.119-25.854 16.657-46.343 16.657-52.198 0-5.381-11.481-39.854-18.719-60.319a4 4 0 0 1 7.543-2.667c3.202 9.055 19.176 54.649 19.176 62.987 0 9.658-11.088 39.377-16.553 53.437 5.719 11.982 15.942 47.443 16.397 49.026a4 4 0 0 1-3.846 5.107z"/><path d="M494.659 639.603a4 4 0 0 1-3.966-3.521c-5.258-43.57-31.947-71.622-34.345-74.064-3.003-1.701-20.175-3.185-34.533-3.511a4 4 0 1 1 .182-7.998c.345.008 8.543.2 17.357.863 17.625 1.327 20.865 3.202 22.518 4.855 1.265 1.265 31.047 31.527 36.764 78.897a4 4 0 0 1-3.976 4.479zm-38.225-77.534h.01zm-39.837 149.534a3.983 3.983 0 0 1-1.912-.489c-9.108-4.968-26.537-14.703-40.925-24.081-20.672-13.473-24.139-18.967-24.805-22.564-1.579-8.529-2.287-27.903-2.316-28.723a4.001 4.001 0 0 1 3.854-4.141 4.004 4.004 0 0 1 4.141 3.854c.007.195.716 19.603 2.187 27.553 1.159 4.195 20.965 18.862 61.695 41.078a4 4 0 0 1-1.919 7.512z"/><path d="M388.347 650.873c-7.193 0-13.558-1.399-16.268-4.101a4 4 0 0 1 5.642-5.672c2.91 2.597 22.519 3.169 31.158-3.38 16.005-12.133 33.28-34.164 33.28-48.602 0-3.274-.729-4.569-1.114-4.796-.616-.363-2.41.081-3.543.706-1.924 1.061-4.358.38-5.434-1.536s-.418-4.334 1.49-5.424c.652-.373 6.518-3.558 11.499-.667 3.385 1.965 5.101 5.907 5.101 11.717 0 19.924-22.355 44.295-36.447 54.977-6.043 4.581-16.354 6.777-25.365 6.777zM130.536 11.114C111.927 20.95 70.243 42.929 55.843 78.55s-31.832 78.063-27.284 136.421c4.547 58.358 3.789 191.242-5.305 208.168-9.095 16.926 150.063-1.263 151.579-64.168S130.536 11.114 130.536 11.114z"/><path d="M40.571 433.151c-9.958 0-17.381-1.41-20.155-4.633-1.771-2.058-2.027-4.776-.687-7.271 8.396-15.625 9.385-147.648 4.841-205.964-4.577-58.739 13.015-102.249 27.151-137.209l.413-1.021c14.921-36.909 58.022-59.689 76.427-69.417l.105-.056a3.998 3.998 0 0 1 5.818 2.902c1.873 11.65 45.854 286.034 44.346 348.588-.747 30.986-34.769 49.591-63.179 59.743-23.488 8.393-54.629 14.34-75.081 14.34zm-13.208-9.369c8.625 3.592 57.145.69 98.662-17.704 20.138-8.922 44.258-24.353 44.809-47.203 1.374-57.002-37.015-301.587-43.366-341.599-19.443 10.445-55.234 31.402-67.916 62.773l-.413 1.022c-14.541 35.964-31.022 76.726-26.592 133.589 4.16 53.381 4.228 186.334-5.184 209.121z"/><path d="M50.067 432.75a4.002 4.002 0 0 1-3.49-5.949c2.686-5.62 17.127-83.987 17.954-94.94a4 4 0 0 1 7.978.602c-.611 8.099-15.153 91.435-18.944 98.234a3.999 3.999 0 0 1-3.497 2.053zm82.132-11.25a4 4 0 0 1-3.904-4.886c.069-.303 6.841-30.648 4.154-60.495a4.001 4.001 0 0 1 7.968-.718c2.803 31.141-4.029 61.699-4.321 62.985a4.001 4.001 0 0 1-3.896 3.114zm111.602-163.329c-5.792 11.584-61.389 64.421-84.884 68.463s-37.895-17.684-60.632-39.663S64.938 177.076 64.18 159.645c-.758-17.432 11.926-38.423 22.737-45.474 17.432-11.368 120.505-62.147 164.463-12.884s4.547 132.632-7.579 156.884z" fill="#fff"/><path d="M153.301 331.126c-17.725.001-30.735-13.503-45.561-28.89-3.887-4.034-7.906-8.206-12.235-12.39-24.819-23.992-34.779-117.554-35.322-130.028-.817-18.805 13.63-39.8 24.149-48.701a4 4 0 1 1 5.167 6.107c-9.009 7.623-22.017 26.322-21.324 42.246.857 19.724 11.698 104.139 32.889 124.624 4.431 4.283 8.5 8.506 12.436 12.591 16.173 16.784 27.86 28.911 44.738 26.006 21.292-3.663 77.607-54.699 81.817-65.926a4 4 0 0 1 7.491 2.809c-5.097 13.591-63.04 66.715-87.951 71.001-2.166.373-4.262.55-6.294.55z"/><path d="M140.727 7.308c68.968-13.642 110.085 15.345 151.769 79.008 27.555 42.083 49.789 165.816 52.357 195.35 4.547 52.295-54.063 93.979-65.431 100.042-.758-95.495-14.147-158.449-23.242-184.816 15.158 0 13.642-36.994 6.036-51.142-7.05-13.113-21.463-10.353-28.773 3.537-13.642 9.095-125.305-16.926-137.432-35.116-12.126-18.189 4.864-98.98 44.716-106.863z"/><path d="M279.422 385.708a4.002 4.002 0 0 1-4-3.968c-.699-88.141-12.352-152.605-23.023-183.544a3.998 3.998 0 0 1 3.781-5.304c1.116 0 2.787-.314 4.408-3.026 5.434-9.09 3.478-32.228-1.895-42.222-2.255-4.195-5.36-6.387-8.938-6.388-4.677.021-9.571 3.812-12.772 9.894a3.993 3.993 0 0 1-1.321 1.465c-11.492 7.662-62.373-4.295-72.456-6.77-14.272-3.503-61.538-15.98-70.522-29.455-7.91-11.866-5.213-43.501 6.012-70.521 10.019-24.116 24.671-39.204 41.256-42.485 34.454-6.815 63.516-3.234 88.846 10.948 22.994 12.874 44.298 35.051 67.045 69.792 28.52 43.557 50.604 169.699 52.995 197.195 4.639 53.344-53.014 96.175-67.533 103.918a4 4 0 0 1-1.882.471zm-18.074-185.932c10.184 32.012 20.786 93.035 21.994 174.792 18.086-12.308 61.298-49.19 57.527-92.555-2.858-32.872-25.753-153.849-51.718-193.505-44.42-67.841-85.817-89.507-147.648-77.276l-.776-3.924.776 3.924c-18.727 3.704-30.23 25.214-35.42 37.706-10.713 25.786-12.396 54.536-6.744 63.014 4.684 7.026 31.731 17.768 65.773 26.123 33.626 8.253 59.344 10.61 65.398 8.243 4.674-8.172 11.782-13.03 19.21-13.063 6.58-.015 12.383 3.835 16.02 10.6 6.611 12.296 8.744 38.357 1.716 50.115-1.827 3.057-3.991 4.823-6.107 5.805zm-25.375 157.638a3.997 3.997 0 0 1-3.464-1.994l-29.305-50.526a4 4 0 0 1 6.92-4.014l29.305 50.526a4 4 0 0 1-3.456 6.008zM79.844 203.309c-.419 0-.846-.066-1.265-.206-4.125-1.375-10.522-2.237-10.586-2.246a4 4 0 0 1 1.054-7.931c.292.039 7.209.969 12.061 2.586a4 4 0 0 1-1.264 7.796z"/><path d="M123.299 190.676a4.001 4.001 0 0 1-1.705-7.62c2.242-1.053 22.234-10.177 33.686-6.224a4 4 0 0 1-2.61 7.562c-6.328-2.184-20.334 2.462-27.675 5.903a3.992 3.992 0 0 1-1.696.379zm-48.002 47.351a6 6 0 0 1-2.205-11.583c.31-.122 7.668-3.001 15.215-3.798a6 6 0 1 1 1.26 11.934c-5.845.617-12.009 3.002-12.069 3.026a5.991 5.991 0 0 1-2.201.421zm63.348-14.028a5.994 5.994 0 0 1-5.064-2.772 5.997 5.997 0 0 1 1.821-8.279c.288-.184 7.125-4.527 14.211-6.32a6 6 0 0 1 2.944 11.634c-5.169 1.308-10.64 4.765-10.695 4.8a5.983 5.983 0 0 1-3.218.939zm-3.175 55.647c-1.788 0-3.379-.346-4.673-1.143a4 4 0 0 1 4.132-6.85c2.494.811 12.986-3.71 22.085-9.525a4 4 0 0 1 4.311 6.739c-6.862 4.39-18.171 10.779-25.855 10.779zm-.477-7.954z"/><path d="M88.933 121.961a4 4 0 0 1-3.982-3.668C81.6 78.08 113.129 30.23 113.45 29.772a4 4 0 1 1 6.554 4.588c-6.032 8.617-29.809 50.518-27.08 83.269a3.999 3.999 0 0 1-3.991 4.332z" fill="#fff"/></svg></g><g transform="translate(23.68421052631579 53.68421052631579) rotate(0.0 637.1052631578947 888.1578947368421) scale(1.572975130749903 1.5695925965456408)"><svg width="810.064" height="1131.705" viewBox="0 0 810.064 1131.705"><path d="M803.305 1013.826s-43.472-49.194-55.219-56.015c-5.129-2.978-17.937-1.795-27.663 0-7.081 1.307-31.291 14.347-41.562 19.999l-16.564-64.396-50.063 9.533s22.32 87.606 31.415 97.206c6.362 6.716 26.753 1.7 36.985 3.973 10.231 2.274 25.01 5.305 31.832 5.684 6.821.379 12.126-3.411 12.126-3.411 4.927-3.6 9.853-12.884 10.611-17.432.758-4.547 30.505 21.032 38.653 22.358 8.147 1.326 37.254-8.785 29.451-17.5z" fill="#fff"/><path d="M220.338 654.274s-71.242 102.063-76.8 119.242-16.24 97.011-16.24 97.011-24.686 0-25.697 8.589-13.642 119.242-16.168 141.979-6.063 106.611-6.063 106.611h206.653s40.421-141.979 45.979-148.547 22.737 148.547 22.737 148.547h179.874s-13.137-153.095-22.232-218.779-38.905-178.358-49.516-201.6-233.432-66.184-242.526-53.053z"/><path d="M534.612 1131.705H354.738a4 4 0 0 1-3.976-3.56c-5.003-45.177-13.703-114.987-18.835-138.728-8.455 23.682-29.071 93.764-42.058 139.383a4 4 0 0 1-3.847 2.905H79.369a3.998 3.998 0 0 1-3.996-4.169c.145-3.43 3.572-84.271 6.084-106.884 2.591-23.318 15.238-134.073 16.171-142.004 1.141-9.698 17.446-11.684 26.164-12.047 2.13-15.62 10.931-78.838 15.939-94.317 5.676-17.542 74.378-116.076 77.324-120.298 1.98-2.85 6.413-5.681 33.891-3.236 31.861 2.835 83.034 11.928 127.338 22.627 23.418 5.655 43.525 11.434 58.146 16.711 23.66 8.539 28.494 14.121 30.072 17.577 10.928 23.938 40.805 137.465 49.839 202.712 9.005 65.035 22.124 217.454 22.255 218.986a3.997 3.997 0 0 1-3.986 4.341zm-176.297-8h171.936c-2.216-25.418-13.711-155.582-21.832-214.23-8.956-64.685-38.434-176.921-49.192-200.488-.567-1.242-5.482-8.054-46.664-20.229-31.521-9.318-76.162-19.246-116.503-25.911-50.622-8.363-69.481-7.615-72.644-5.993-19.873 28.481-71.677 104.313-76.071 117.893-5.384 16.642-15.975 95.515-16.081 96.31a4 4 0 0 1-3.963 3.469c-11.381.009-21.459 2.789-21.726 5.057-.933 7.928-13.575 118.642-16.166 141.954-2.16 19.443-5.11 84.951-5.862 102.168h199.458c2.637-9.22 11.172-38.965 20.089-68.951 21.839-73.435 24.551-76.64 25.854-78.181 1.186-1.401 2.984-1.95 4.692-1.428 3.471 1.059 6.213 1.895 16.18 78.361 3.905 29.956 7.353 60.08 8.494 70.198zm-135.058-466.76zm.37-.394-.008.012-.003.005.012-.017zm-3.288-2.278h.01z"/><g fill="#fff"><path d="M661.938 744.716c-3.537-23.242-13.642-121.768-15.663-157.137-2.021-35.368-9.095-44.969-9.095-52.042s-1.011-132.884-2.526-188.357c-1.516-55.473-19.705-92.57-27.284-103.677-7.579-11.108-49.591-2.809-93.859 13.634-39.68 14.739 4.175 325.137 18.427 379.504l18.92 71.345c-1.039 15.33-3.406 56.237-.473 74.119 3.646 22.232 29.196 130.863 32.733 140.969 3.537 10.105 33.853 11.116 41.432 12.631 7.579 1.516 57.6-21.221 58.611-32.337 1.01-11.116-17.684-135.411-21.221-158.653zM324.185 306.793s-96.774 39.775-112.437 55.025c-13.71 13.348-67.533 75.058-83.581 93.805-5.625-8.776-12.192-16.036-19.493-19.118-22.737-9.6-59.116-19.134-70.737-6.283S5.601 498.653 4.085 506.737s17.684 78.316 17.179 87.411 96.847 71.339 104.589 69.726c6.524-1.359 62.653-48 74.779-60.632s44.889-61.134 46.99-64.168c4.547-6.568 2.526-18.695 2.526-18.695l74.037-213.585z"/><path d="M235.185 589.04s-9.795-33.791-15.353-51.984 62.953-213.023 90.592-224.492 192.86-65.694 219.134-59.297c26.274 6.396 39.476 190.817 39.411 227.702-.026 14.661 1.425 92.037-4.133 103.153-3.622 7.245-85.586 136.844-99.228 151.496-13.642 14.653-78.281 31.582-120.976 22.74-54.451-11.277-123.559-64.971-127.453-78.316-2.722-9.331-5.672-30.265 1.402-43.401 7.074-13.137 16.603-47.601 16.603-47.601"/><path d="M371.573 279.039c-6.447-7.833-50.197 11.845-55.095 13.906 15.954 22.092 45.31 116.91 49.43 140.6 11.957-11.259 50.186-42.232 70.707-23.691-13.954-32.246-57.278-121.382-65.042-130.815z"/></g><path d="M365.908 437.545a4.003 4.003 0 0 1-3.941-3.315c-4.098-23.563-33.194-117.428-48.732-138.944a3.999 3.999 0 0 1 1.692-6.029c.325-.137.825-.353 1.478-.635 44.355-19.165 54.34-16.885 58.257-12.125 8.262 10.039 52.214 100.776 65.625 131.768a4.001 4.001 0 0 1-6.353 4.557c-16.187-14.625-48.652 7.975-65.283 23.635a4 4 0 0 1-2.743 1.088zm-43.501-142.791c15.396 26.04 39.095 100.994 46.013 131.183 6.227-5.32 16.452-13.275 27.837-18.987 14.108-7.08 24.513-7.858 32.058-5.937-17.271-38.173-53.05-111.072-59.788-119.38-.499-.321-6.964-3.521-46.121 13.122zm46.079-13.173.001.001-.001-.001z"/><path d="M458.843 487.49a4.312 4.312 0 0 1-2.002-.489c-2.855-1.489-2.785-5.053-2.743-7.183.489-24.952-37.907-109.365-50.257-130.63a4.001 4.001 0 0 1 6.918-4.018c9.708 16.718 43.832 89.538 50.286 124.505 3.56-10.254 8.501-26.95 13.327-46.983 8.186-33.976 11.987-60.666 10.167-71.397a4 4 0 1 1 7.887-1.337c2.929 17.28-6.522 59.211-10.721 76.437-3.486 14.298-7.365 28.283-10.924 39.379-5.904 18.405-8.052 19.969-9.207 20.809a4.644 4.644 0 0 1-2.731.907z"/><path d="M476.635 434.223a4 4 0 0 1-3.065-6.568c13.34-15.932 34.084-41.69 36.561-47.35 1.555-3.555 7.021-6.108 20.061-11.507 5.28-2.187 12.928-5.353 15.72-7.293-4.6-10.675-27.089-50.395-35.87-65.667a4 4 0 0 1 6.935-3.987c3.464 6.025 33.935 59.138 37.143 68.695 2.063 6.148-6.082 9.521-20.869 15.643-5.689 2.356-14.231 5.892-15.919 7.6-4.24 9.007-34.194 44.898-37.63 49.002a3.99 3.99 0 0 1-3.069 1.432zm69.902-71.131h.01zM125.64 667.907c-2.761 0-10.93-2.284-44.04-23.01-22.872-14.318-44.533-29.49-55.185-38.653-7.812-6.721-9.291-9.697-9.146-12.319.205-3.683-4.335-23.329-7.983-39.115-6.862-29.694-10-44.189-9.133-48.811 1.599-8.528 22.452-64.786 34.817-78.46 16.853-18.636 69.331 2.777 75.26 5.281 25.532 10.78 41.298 65.312 42.794 73.168a4 4 0 0 1-7.859 1.497c-2.16-11.34-17.772-58.735-38.047-67.295-26.181-11.055-57.333-17.106-66.214-7.285-10.743 11.88-31.295 66.074-32.888 74.568-.569 3.844 4.999 27.941 9.065 45.536 5.025 21.743 8.17 35.622 8.191 40.76 1.806 3.246 15.728 15.259 47.921 36.261 26.759 17.457 47.469 28.848 52.064 29.821 7.709-3.427 59.256-45.594 72.489-59.379 7.004-7.296 23.126-29.292 45.396-61.935.601-.881 1.009-1.478 1.19-1.74 2.952-4.264 2.35-12.827 1.869-15.766a4.002 4.002 0 0 1 3.295-4.595 3.998 3.998 0 0 1 4.597 3.286c.234 1.405 2.134 13.948-3.183 21.629-.177.255-.574.837-1.159 1.695-22.839 33.477-38.826 55.25-46.234 62.966-10.005 10.422-68.138 59.963-76.849 61.778-.251.052-.563.117-1.029.117z"/><path d="M128.165 459.624a4 4 0 0 1-3.127-6.492c4.049-5.086 67.714-78.401 83.92-94.18 16.033-15.61 109.726-54.223 113.707-55.859a4 4 0 0 1 3.041 7.399c-26.719 10.982-98.774 42.125-111.167 54.191-15.452 15.044-79.262 88.431-83.241 93.43a3.993 3.993 0 0 1-3.132 1.509zm497.011 480.125c-.53 0-1.001-.04-1.412-.122-1.388-.277-3.872-.564-6.75-.897-17.934-2.072-34.31-4.727-37.673-14.335-3.586-10.245-29.229-119.229-32.905-141.643-3.681-22.443-.192-70.166-.042-72.187a3.997 3.997 0 0 1 4.286-3.692 4 4 0 0 1 3.692 4.286c-.036.485-3.569 48.793-.042 70.298 3.648 22.241 29.021 130.18 32.561 140.295 1.986 5.675 23.094 8.113 31.04 9.031 3.179.367 5.689.657 7.4 1 2.537.27 15.072-3.884 29.582-11.284 19.323-9.854 24.108-16.087 24.261-17.494.83-9.125-13.499-107.137-21.192-157.688-3.696-24.288-13.703-122.524-15.702-157.51-1.323-23.152-4.762-34.729-7.038-42.391-1.198-4.034-2.064-6.948-2.064-9.88 0-7.791-1.04-133.909-2.525-188.248-1.76-64.432-25.577-100.047-26.59-101.532-5.457-7.997-40.315-3.998-52.01 1.38a4 4 0 1 1-3.342-7.268c9.944-4.572 52.094-13.079 61.96 1.38 9.707 14.226 26.522 52.522 27.979 105.822 1.522 55.711 2.528 180.376 2.528 188.466 0 1.769.727 4.216 1.733 7.602 2.236 7.529 5.979 20.131 7.355 44.212 1.99 34.835 11.948 132.604 15.624 156.764 2.291 15.057 22.355 147.462 21.25 159.616-.349 3.843-3.506 7.868-9.933 12.667-13.113 9.791-42.248 23.351-52.033 23.351z"/><path d="M563.409 759.327a4.003 4.003 0 0 1-3.864-2.976l-31.474-118.686a4.001 4.001 0 0 1 7.733-2.051L567.278 754.3a4 4 0 0 1-3.869 5.027z"/><path d="M371.219 764.818c-9.586 0-18.886-.78-27.397-2.543-32.791-6.791-66.769-27.336-84.104-38.979-20.417-13.712-43.638-32.746-46.377-42.134-2.829-9.696-6.11-31.876 1.72-46.418 6.779-12.589 16.176-46.431 16.27-46.771a4 4 0 0 1 7.71 2.132c-.394 1.425-9.732 35.052-16.937 48.431-6.123 11.37-4.003 30.381-1.084 40.385 3.265 11.191 70.85 64.424 124.424 75.519 40.404 8.369 104.415-7.777 117.237-21.549 13.111-14.083 95.163-143.73 98.578-150.56 3.813-7.627 3.689-57.881 3.63-82.032-.022-8.892-.039-15.916.083-19.469.076-2.208 1.922-3.948 4.135-3.86a4 4 0 0 1 3.86 4.135c-.117 3.405-.1 10.364-.078 19.174.099 40.211-.168 77.018-4.474 85.63-3.115 6.23-85.532 137.025-99.878 152.433-11.802 12.676-57.029 26.475-97.317 26.475z"/><path d="M247.622 667.904a4 4 0 0 1-4-4c0-41.8-18.904-95.037-19.095-95.57a4 4 0 0 1 7.531-2.699c.799 2.229 19.564 55.091 19.564 98.268a4 4 0 0 1-4 4zm465.793 365.933c-.386 0-.777-.011-1.173-.033-7.542-.419-23.585-3.797-32.478-5.773-3.403-.756-8.683-.566-13.79-.383-9.859.356-20.053.721-25.231-4.744-9.528-10.057-27.86-79.735-29.919-87.647a4 4 0 1 1 7.742-2.014c7.578 29.116 21.876 77.712 27.985 84.16 2.693 2.843 11.81 2.514 19.136 2.251 5.867-.212 11.41-.411 15.813.568 14.726 3.273 26.093 5.312 31.186 5.596 5.265.295 9.538-2.642 9.579-2.672a4 4 0 0 1 4.65 6.51c-.25.179-5.946 4.182-13.501 4.182z"/><path d="M806.066 1020.926a3.99 3.99 0 0 1-2.998-1.351c-12.74-14.411-47.814-52.978-56.991-58.306-3.226-1.872-13.244-1.683-24.928.475-6.17 1.138-30.288 13.865-44.993 22.142a4 4 0 0 1-3.924-6.972c3.863-2.174 38.015-21.294 47.465-23.038 8.383-1.547 23.479-3.543 30.397.475 11.962 6.945 54.191 54.523 58.967 59.925a4 4 0 0 1-2.995 6.649z"/><path d="M771.956 1033.838a3.98 3.98 0 0 1-2.295-.727c-12.031-8.446-31.536-21.673-35.96-23.495-3.753-1.544-18.499-.469-27.772.79a4.002 4.002 0 0 1-4.501-3.426 3.998 3.998 0 0 1 3.425-4.501c4.084-.555 24.816-3.174 31.895-.26 6.661 2.743 34.373 22.142 37.511 24.344a4 4 0 0 1-2.302 7.274zm-93.342-52.976a4.002 4.002 0 0 1-3.871-3.004l-14.593-56.729a4 4 0 0 1 7.747-1.994l14.593 56.729a4 4 0 0 1-3.877 4.998z"/><path d="M122.995 866.693a4 4 0 0 1-2.171-7.362l59.957-38.65a4 4 0 1 1 4.334 6.723l-59.957 38.65a3.982 3.982 0 0 1-2.164.639zm212.566 128.048a4 4 0 0 1-3.389-6.12l10.078-16.13a4 4 0 0 1 6.785 4.24l-10.078 16.13a4 4 0 0 1-3.396 1.881z" fill="#fff"/><ellipse cx="454.98" cy="550.157" rx="6.821" ry="7.958"/><ellipse cx="438.248" cy="626.045" rx="7.958" ry="6.821" transform="matrix(.29470752 -.9555875 .9555875 .29470752 -289.148 860.327)"/><path d="M524.019 179.898c4.635-8.755 19.136-7.401 19.828 16.481.844 29.099-3.09 46.352-18.283 49.699 2.575 42.747-48.583 113.427-73.841 115.558-32.06 2.704-74.356-24.528-109.506-83.626-11.588 5.215-25.558-22.081-30.708-39.592s9.721-26.459 19.313-12.554c0 0-18.476-57.038-23.112-78.669-4.635-21.631 199.313-64.893 204.978-41.202s11.33 73.905 11.33 73.905z" fill="#fff"/><path d="M447.251 365.822c-35.015 0-75.369-31.296-106.938-83.217-2.122.206-4.326-.196-6.512-1.201-11.723-5.39-22.049-27.986-26.129-41.858-3.543-12.047 1.03-20.376 7.134-23.287 2.316-1.104 5.306-1.581 8.482-.833-5.668-17.909-16.107-51.618-19.488-67.394-1.537-7.172 6.822-13.872 27.104-21.726 15.437-5.978 37.247-12.287 61.414-17.765 28.772-6.522 57.842-11.188 79.755-12.801 36.824-2.71 43.129 3.558 44.507 9.322 4.391 18.361 8.702 51.79 10.521 66.8a11.776 11.776 0 0 1 7.229-.6c3.021.704 12.925 4.588 13.517 25 .692 23.861-1.126 46.584-18.19 52.788.102 44.443-49.982 114.241-77.596 116.57-1.59.134-3.194.201-4.808.201zm-105.036-91.813a4 4 0 0 1 3.44 1.956c31.652 53.216 72.167 84.517 105.732 81.685 22.184-1.871 72.696-69.64 70.185-111.331a4 4 0 0 1 3.132-4.147c11.624-2.561 16.012-15.795 15.146-45.677-.339-11.691-4.164-16.702-7.336-17.441-1.904-.444-3.851.623-4.959 2.716a4 4 0 0 1-7.51-1.423c-.056-.5-5.703-50.244-11.246-73.424-.011-.046-2.232-4.609-27.217-3.704-26.78.971-68.499 7.908-106.284 17.673-50.351 13.013-63.09 22.989-63.657 25.551 4.57 21.25 22.803 77.62 22.987 78.188a3.998 3.998 0 0 1-2.035 4.819 3.999 3.999 0 0 1-5.063-1.315c-2.908-4.215-6.465-5.999-9.281-4.655-2.941 1.402-5.104 6.322-2.902 13.809 4.388 14.919 13.969 33.248 21.796 36.847 1.726.793 2.741.537 3.433.226a3.987 3.987 0 0 1 1.639-.353z"/><path d="M396.809 42.13c-22.448 6.122-96.824 58.197-102.489 81.888s16.481 81.888 23.176 86.008 30.386-6.18 34.506-7.21 5.665-42.232 16.996-41.202c11.33 1.03.515 38.626 1.03 42.232.515 3.605 36.051 8.755 38.111-2.06s-2.575-63.862 8.755-64.893c11.33-1.03 15.966 51.502 16.996 58.197s64.893-14.013 72.103-20.14c7.21-6.126 30.386 6.234 32.446-9.216s-5.15-69.013-19.571-81.888-112.617-44.292-122.06-41.717z"/><path d="M322.069 214.965c-2.651 0-4.923-.458-6.669-1.532-5.923-3.645-14.327-26.367-17.943-37.873-4.152-13.21-10.585-37.593-7.027-52.473 3.716-15.541 30.683-37.866 46.426-49.791 23.033-17.446 47.254-31.849 58.901-35.026 8.318-2.27 52.67 12.203 61.476 15.127 12.526 4.159 54.183 18.432 64.3 27.465 15.733 14.047 23.051 69.057 20.872 85.4-1.749 13.115-14.511 11.974-22.956 11.219-4.135-.37-9.281-.83-10.865.517-4.842 4.114-25.167 11.127-36.413 14.623-14.427 4.484-32.851 9.372-38.693 7.194-1.96-.731-3.25-2.231-3.54-4.117-.139-.901-.323-2.442-.577-4.575-.804-6.743-2.301-19.294-4.671-30.399-3.477-16.289-6.71-19.294-7.427-19.776-.546.51-2.51 3.093-3.588 14.426-.819 8.602-.85 18.937-.877 28.055-.026 8.674-.046 15.525-.728 19.106-.887 4.655-5.483 10.115-22.369 9.73-4.793-.111-9.964-.725-14.188-1.685-6.286-1.428-9.022-3.215-9.444-6.168-.209-1.46.142-3.448 1.187-8.977 1.317-6.973 4.816-25.495 1.696-29.628-.146-.193-.182-.197-.315-.209-.442-.045-2.105 1.065-4.081 6.465-1.911 5.22-3.293 12.108-4.512 18.186-2.193 10.931-3.1 15.456-7.071 16.448-.666.166-2.5.83-4.442 1.532-9.639 3.485-19.395 6.736-26.462 6.736zm-2.419-8.311c2.5 1.426 11.301-.575 26.161-5.948 1.64-.593 2.916-1.054 3.899-1.377.748-1.966 1.741-6.918 2.49-10.654 3.01-15.009 6.433-32.021 17.161-31.044 2.418.22 4.484 1.38 5.976 3.356 4.852 6.426 2.665 20.664-.22 35.933-.333 1.764-.695 3.68-.911 5.028 4.906 1.741 20.385 3.885 27.822.806.606-.251 2.032-.921 2.184-1.716.543-2.851.564-10.031.587-17.633.089-29.865.954-49.515 11.736-50.495 9.923-.895 15.749 15.154 20.771 57.266.102.855.195 1.633.277 2.302 10.87.281 60.197-15.795 65.823-20.575 4.139-3.516 10.554-2.943 16.758-2.388 11.039.986 13.715.181 14.313-4.308 1.958-14.684-5.369-66.857-18.27-78.376-14.191-12.671-109.818-42.226-118.391-40.828-10.619 2.919-34.206 17.068-56.127 33.672-24.593 18.628-41.252 35.976-43.476 45.274-5.398 22.573 16.203 77.32 21.439 81.705zM396.81 42.13h.01z"/><path d="M312.861 110.628c-1.015-10.151-3.09-49.957 2.06-64.377 5.15-14.421 42.232-41.717 52.532-42.232s20.086 9.785 22.661 13.906c2.575 4.12 16.996-22.146 30.901-7.725 13.906 14.421 22.661 50.472 20.086 65.408s-127.164 45.782-128.24 35.021z"/><path d="M320.268 116.86c-.535 0-1.05-.009-1.544-.026-2.299-.082-9.295-.332-9.843-5.809-.768-7.68-3.46-50.066 2.273-66.121 5.54-15.51 43.458-44.248 56.099-44.88 10.311-.521 19.788 7.51 24.396 13.211.569-.495 1.182-1.05 1.708-1.527 6.007-5.441 18.506-16.762 30.537-4.285 15.193 15.755 23.796 53.505 21.148 68.864-.498 2.887-2.012 11.672-55.401 26.996-23.18 6.654-54.225 13.578-69.374 13.578zm-3.427-6.63h.01zm0-.009v.009-.009zm-.144-1.531c9.596 2.05 62.088-8.268 98.927-22.332 18.958-7.237 21.335-11.087 21.552-11.522 2.27-13.54-6.075-48.416-19.039-61.86-5.621-5.83-10.946-3.004-19.408 4.661-3.384 3.065-5.619 5.09-8.537 4.684-1.445-.201-2.677-1.009-3.469-2.277-2.017-3.227-10.622-12.462-19.069-12.031-8.608.43-44.231 26.326-48.965 39.582-4.347 12.172-3.258 46.765-1.991 61.094z"/><path d="M364.878 47.795c-3.835-11.313 27.811-21.631 36.566-23.691s14.879 22.146 14.65 26.781-47.611 7.544-51.216-3.09z" fill="#fff"/><path d="M391.023 59.013c-12.164 0-27.153-1.732-29.933-9.933-.945-2.786-.625-5.737.926-8.531 6.884-12.41 38.2-20.264 38.513-20.337 1.972-.465 4.996-.457 8.203 2.215 7.315 6.094 11.586 24.062 11.358 28.657-.216 4.358-5.272 5.951-12.797 7.002-.173.024-7.485.928-16.269.928zm-22.357-12.502c.003.01.431 1.037 3.671 2.173 11.055 3.875 33.548 2.34 39.645.337-.689-5.051-4.206-16.979-8.371-20.449-.539-.449-.959-.64-1.25-.574-9.416 2.216-29.527 9.54-33.349 16.431-.575 1.036-.497 1.634-.345 2.083zm91.491 179.876a4 4 0 0 1-2.828-6.829c6.648-6.649 22.96-12.564 31.154-12.564a4 4 0 0 1 0 8c-6.31 0-20.563 5.286-25.498 10.221a3.988 3.988 0 0 1-2.828 1.172zm-88.586 8.073a4 4 0 0 1-1.032-7.865c13.116-3.509 26.457-1.279 33.624-.081a4 4 0 0 1-1.319 7.891c-6.569-1.098-18.797-3.142-30.238-.081a3.988 3.988 0 0 1-1.036.137zm24.259 34.073c-4.01 0-7.67-.15-9.504-.609-2.675-.668-4.292-3.373-3.63-6.049s3.376-4.309 6.055-3.652c2.126.521 12.917.332 21.694-.142a4.996 4.996 0 0 1 5.262 4.723 5 5 0 0 1-4.723 5.262c-2.753.149-9.323.467-15.155.467zm71.54-10.244a5 5 0 0 1-2.048-9.564c5.929-2.659 15.227-7.215 17.332-9.019s5.253-1.554 7.05.542a5 5 0 0 1-.542 7.05c-3.954 3.389-17.145 9.384-19.749 10.552a4.978 4.978 0 0 1-2.042.439zm-33.99 71.103a4.02 4.02 0 0 1-.789-.078c-6.718-1.344-13.14-15.287-12.772-22.021.242-4.441 3.18-6.27 5.622-6.486 2.802-.249 7.311-.076 12.085.107 5.091.196 11.426.439 13.523-.028a4 4 0 1 1 1.735 7.809c-2.89.642-8.04.501-15.565.212-3.434-.132-6.961-.267-9.415-.214.408 3.669 4.298 11.609 6.525 12.813a4 4 0 0 1-.949 7.885zm1.009-7.854zm-.229-.069h.002-.002z"/><path d="M140.001 259.158c1.914 2.489 6.623 3.851 11.938 4.353-.161-6.032-.317-10.222-.317-10.222s-16.674-.699-11.621 5.87z" fill="#fff"/><path d="M180.422 248.395c-1.516-3.689-24.758-57.953-32.337-55.932s-49.01 3.032-49.516 10.105c-.505 7.074 2.021 69.221 0 79.832-2.021 10.61-68.716 208.168-68.716 208.168 8.552 31.234 45.327 56.694 73.539 61.533 6.408-43.585 30.745-209.29 32.061-220.691 1.516-13.137 14.653-16.168 16.168-26.729 1.031-7.181.66-28.352.317-41.172-5.315-.501-10.023-1.864-11.938-4.353-5.053-6.568 11.621-5.87 11.621-5.87s.155 4.19.317 10.222c8.712.822 19.056-.674 21.41-3.342 0 0 8.589-8.084 7.074-11.773z" fill="#fff"/><path d="M105.232 543.074a3.999 3.999 0 0 1-3.962-4.584c.287-1.945 28.718-194.613 30.209-207.538.964-8.354 5.921-13.36 9.904-17.383 3.216-3.248 5.756-5.814 6.279-9.456 1.448-10.085-.023-50.272-.038-50.677a4 4 0 1 1 7.995-.297c.062 1.682 1.511 41.317-.038 52.11-.898 6.257-4.944 10.343-8.513 13.948-3.753 3.791-6.994 7.064-7.641 12.671-1.506 13.05-29.07 199.843-30.243 207.789a4 4 0 0 1-3.952 3.417z"/><path d="M112.489 556.929c-7.265 0-15.525-1.603-24.294-4.812-24.427-8.938-54.31-31.681-62.199-60.492a4 4 0 0 1 .068-2.336c18.526-54.877 66.96-199.155 68.576-207.637 1.234-6.477.606-36.184.19-55.841-.282-13.324-.432-20.986-.251-23.527.536-7.503 12.957-9.522 39.197-12.066 5.823-.564 11.324-1.098 13.278-1.619 5.013-1.337 10.39 2.799 23.044 27.889 6.847 13.574 13.08 28.092 14.023 30.388 2.229 5.425-4.075 12.482-8.032 16.206a4 4 0 1 1-5.483-5.825c2.802-2.645 5.578-6.262 5.957-7.72-1.208-2.885-6.429-14.97-12.384-26.996-10.211-20.619-14.666-25.081-15.914-26.011-2.803.593-7.69 1.067-13.718 1.651-9.248.896-28.146 2.728-32.024 5.435-.094 3.202.092 11.99.304 22.027.581 27.468.957 50.754-.33 57.508C100.508 293.59 40.1 472.713 34.04 490.669c7.624 25.532 34.677 45.805 56.902 53.938 14.985 5.484 28.276 5.773 35.553.773a4 4 0 1 1 4.53 6.594c-4.81 3.305-11.161 4.958-18.538 4.958z"/></svg></g><g transform="translate(554.2105263157895 360.0) rotate(0.0 737.3684210526317 738.1578947368421) scale(1.5704678508920926 1.5703499125894531)"><svg width="939.043" height="940.119" viewBox="0 0 939.043 940.119"><path d="M774.245 741.487c-3.85 6.664-20.211 29.811-17.179 45.979 2.242 11.96 39.188 65.838 48.478 80.019 6.838 10.439 35.901 12.949 42.974-8.777 7.074-21.726 24.758-76.295 22.737-105.095s-26.779-51.537-43.958-53.558-46.115 29.423-53.053 41.432z" fill="#fff"/><path d="M824.235 879.277c-9.36 0-18.182-3.714-22.037-9.599-1.368-2.088-3.337-5.04-5.708-8.592-19.979-29.942-41.454-62.736-43.356-72.882-2.923-15.587 9.613-35.743 15.638-45.429.83-1.334 1.523-2.447 2.009-3.288l3.464 2.001-3.464-2.001c6.313-10.928 36.427-45.822 56.983-43.403 20.267 2.384 45.422 27.912 47.481 57.25 2.09 29.783-16.083 85.601-22.924 106.613-3.438 10.56-11.993 17.494-23.47 19.025-1.54.206-3.086.305-4.616.305zm1.351-175.319c-14.546 0-40.786 27.254-47.878 39.531-.535.926-1.28 2.124-2.143 3.511-5.063 8.139-16.918 27.2-14.568 39.729 1.761 9.39 30.062 51.805 42.148 69.917 2.386 3.576 4.368 6.547 5.745 8.648 2.396 3.657 10.305 6.895 18.904 5.748 4.881-.651 13.57-3.28 16.921-13.572 6.709-20.607 24.531-75.348 22.55-103.577-1.919-27.343-25.608-48.121-40.435-49.865-.403-.047-.82-.071-1.244-.071z"/><path d="M616.098 324.416c7.895 3.782 196.042 84.103 202.105 85.114s79.832 290.021 82.358 299.621 0 28.295 0 28.295 36.884 50.526 34.358 75.789-48.505 114.189-53.558 121.263c-24.201 0-73.263 1.621-73.263 1.621H324.561s-12.126-98.631-13.137-105.2c-1.011-6.568-71.747 70.232-76.8 73.768-5.053 3.537-96.505-19.705-101.053-20.211-4.547-.505-16.674-16.168-23.242-27.284S6.245 626.287 5.234 621.739c-1.011-4.547 119.242-147.333 123.789-133.035s35.874 130.642 35.874 130.642 22.232-54.702 24.758-60.26-3.537-25.768.505-32.842 50.837-116.498 54.358-122.886c4.429-8.037 91.663-22.578 96.716-24.625s60.734-32.639 76.8-39.942c22.232-10.105 175.715-25.083 198.063-14.377z"/><path d="M808.098 940.119H324.561a4 4 0 0 1-3.97-3.512c-.108-.874-9.562-77.76-12.393-99.655-10.34 8.589-36.522 35.687-50.068 49.707-13.991 14.48-19.444 20.068-21.211 21.306-1.9 1.331-3.864 2.706-35.597-3.961-16.871-3.545-36.494-8.18-50.822-11.564-8.348-1.972-16.233-3.834-17.388-3.989-9.174-1.019-26.058-28.941-26.225-29.222C101.333 849.83 2.683 628.69 1.331 622.609c-.482-2.169-.773-3.479 16.912-25.43 10.552-13.098 24.332-29.445 37.805-44.85 25.891-29.602 58.984-65.49 69.613-68.355 3.854-1.04 6.38 1.019 7.175 3.519 3.722 11.701 24.777 89.506 32.833 119.349 6.648-16.321 18.501-45.352 20.346-49.409.675-1.485.013-7.601-.424-11.648-.876-8.104-1.783-16.482 1.098-21.523 2.046-3.581 16.723-37.294 29.673-67.038 14.261-32.757 23.037-52.858 24.655-55.793 3.144-5.706 21.808-10.952 79.88-22.454 9-1.783 17.502-3.467 18.871-3.961 1.879-.762 13.489-6.952 25.78-13.505 18.424-9.823 41.353-22.048 50.833-26.357 22.5-10.227 177.356-25.884 201.447-14.343 10.818 5.182 192.947 82.593 201.13 84.792 3.043.511 4.425 1.138 16.102 41.537 6.072 21.008 14.228 50.662 24.241 88.139 17.706 66.267 36.608 139.747 42.819 163.893 1.28 4.975 2.083 8.101 2.311 8.963 2.274 8.643.858 23.367.293 28.249 5.928 8.329 36.622 52.798 34.177 77.252-2.615 26.149-48.934 115.701-54.283 123.19a4 4 0 0 1-3.255 1.675c-23.857 0-72.641 1.602-73.131 1.618-.044.002-.088.002-.132.002zm-479.999-8H808.03c1.988-.065 46.916-1.529 71.141-1.617 8.518-14.181 49.456-94.553 51.768-117.665 1.946-19.462-23.601-59.318-33.609-73.034a4.002 4.002 0 0 1-.733-2.893c.672-4.986 1.999-19.509.096-26.742-.228-.867-1.036-4.008-2.322-9.006-61.417-238.762-75.445-281.75-78.604-288.222-21.02-7.268-199.812-84.158-201.397-84.917-19.843-9.507-171.965 4.086-194.68 14.411-9.25 4.205-32.056 16.364-50.38 26.134-15.501 8.265-24.378 12.984-26.573 13.874-1.606.651-6.555 1.661-20.287 4.381-18.945 3.752-69.069 13.68-74.538 18.676-1.928 3.725-13.255 29.741-24.215 54.918-16.793 38.572-27.958 64.131-30.062 67.813-1.594 2.79-.725 10.827-.09 16.694.827 7.651 1.258 12.508-.247 15.819-2.464 5.421-24.471 59.564-24.694 60.11a3.99 3.99 0 0 1-3.951 2.486 4 4 0 0 1-3.617-2.952c-.299-1.109-28.551-106.012-35.039-127.894-6.019 3.57-23.765 19.417-61.148 61.933-29.338 33.366-51.53 61.204-55.316 67.427 3.478 8.716 25.137 58.077 50.425 114.884 29.983 67.354 51.106 113.836 53.816 118.421 6.96 11.78 17.327 24.185 20.403 25.364 1.49.207 6.113 1.285 18.161 4.131 21.838 5.158 72.4 17.086 80.405 16.414 2.377-2.106 11.14-11.176 19.634-19.966 51.65-53.457 55.743-55.714 59.977-54.366 1.604.51 2.764 1.88 3.025 3.576.911 5.924 10.519 83.911 12.721 101.808zm-94.927-31.109zm583.765-487.687c.183.063.384.115.602.152a5.7 5.7 0 0 1-.602-.152zm-1.561-1.089zm3.63-6.621h.01z"/><path d="M407.045 372.266c-1.25 10.977-5.684 41.684-3.221 59.495s70.295 319.453 75.221 328.926c4.926 9.474 98.905-108 101.937-123.916s31.096-289.22 31.832-301.263c.735-12.043-203.515 16.972-205.768 36.758z" fill="#fff"/><path d="M480.011 765.229c-1.943 0-3.626-.986-4.515-2.696-5.463-10.506-73.321-313.499-75.634-330.224-2.225-16.088.92-41.739 2.61-55.519.236-1.925.442-3.605.598-4.976.497-4.359 4.421-9.833 29.761-17.377 15.144-4.509 36.028-9.186 60.394-13.527 46.884-8.352 95.494-13.491 113.073-11.955 2.971.26 10.865.95 10.507 6.798-.872 14.284-28.998 286.56-31.895 301.768-2.345 12.312-43.012 63.225-47.641 68.99-12.215 15.212-24.128 29.186-33.542 39.349-17.106 18.464-20.984 19.033-22.847 19.307a6.001 6.001 0 0 1-.869.064zm2.605-6.341h.01zM411.004 372.84c-.156 1.367-.36 3.028-.593 4.923-1.645 13.418-4.708 38.395-2.626 53.45 1.127 8.151 17.458 82.742 36.403 166.275 19.197 84.64 33.395 144.644 37.494 158.593 6.875-4.964 25.219-24.459 50.129-55.554 28.081-35.053 44.267-59.397 45.24-64.505 2.794-14.668 29.195-270.024 31.612-298.722-6.218-1.348-30.28-.957-76.606 5.538-34.576 4.847-80.542 13.209-105.854 22.139-13.036 4.599-14.978 7.453-15.199 7.863zm.014-.121v.004-.004z"/><path d="M443.801 805.108a4 4 0 0 1-3.071-6.56c.428-.514 42.9-51.5 49.287-60.835a4 4 0 1 1 6.602 4.518c-6.6 9.646-47.985 59.329-49.744 61.438a3.992 3.992 0 0 1-3.075 1.439zM572.645 218.54v150.186s-130.358 75.92-138.695 30.446-13.642-133.389-13.642-133.389l152.337-47.242z" fill="#fff"/><path d="M454.919 381.74c19.496 14.653 49.011 10.667 67.2-2.526 9.756-7.077-7.074 56.589-7.074 56.589s23.31 214.224 21.794 234.434c-15.327 22.808-45.542 57.103-45.542 57.103s-19.646-75.789-26.274-103.074c1.011-18.189 25.263-180.884 25.263-180.884s-35.987-46.836-35.368-61.642z"/><path d="M491.298 731.34a3.999 3.999 0 0 1-3.872-2.996c-.197-.758-19.73-76.132-26.289-103.133a3.978 3.978 0 0 1-.107-1.166c.966-17.383 22.343-161.375 25.052-179.58-6.737-8.881-35.779-48.075-35.16-62.892a4 4 0 0 1 6.4-3.03c18.109 13.61 45.973 9.383 62.448-2.567 3.225-2.339 5.813-.92 6.529-.429 2.959 2.028 4.933 5.98-.917 33.917-2.497 11.926-5.505 23.657-6.28 26.638 1.736 15.982 23.223 214.487 21.727 234.434a4 4 0 0 1-.669 1.932c-15.297 22.764-44.62 56.107-45.861 57.516a3.998 3.998 0 0 1-3.001 1.355zm-22.243-107.429c5.43 22.295 19.153 75.502 24.209 95.058 9.03-10.505 28.247-33.305 39.637-50.046.571-20.054-13.934-160.104-21.832-232.687a4.008 4.008 0 0 1 .109-1.455c5.021-18.998 9.681-41.19 10.026-50.13-16.382 10.265-40.579 14.604-60.165 5.411 5.69 13.643 21.557 36.743 32.42 50.884.661.861.945 1.953.784 3.027-.24 1.609-23.759 159.509-25.189 179.939z"/><path d="M586.287 283.214c-7.177-9.787-57.095 106.152-84.884 105.647 27.789 22.737 57.095 43.911 61.642 58.563 4.547 14.653 58.611-107.621 59.621-117.221 1.011-9.6-30.821-39.411-36.379-46.989z" fill="#fff"/><path d="M564.301 452.64c-1.863 0-4.147-1.032-5.077-4.03-3.399-10.953-24.058-27.499-45.929-45.017-4.725-3.785-9.612-7.698-14.425-11.636a4 4 0 0 1-1.222-4.475 3.98 3.98 0 0 1 3.828-2.62c4.031.082 11.772-3.768 25.692-22.485 10.356-13.924 20.924-31.675 30.249-47.336 17.152-28.808 22.097-36.147 27.531-36.407 1.804-.086 3.47.72 4.566 2.215 1.424 1.942 5.086 5.853 9.326 10.382 16.274 17.382 28.655 31.32 27.806 39.392-.595 5.652-14.062 37.408-26.267 63.521-26.931 57.621-32.567 58.176-35.594 58.473a5.033 5.033 0 0 1-.481.023zm-54.374-62.009c2.811 2.268 5.617 4.515 8.368 6.719 21.739 17.411 40.775 32.657 47.097 45.287 4.154-5.326 13.182-20.545 28.777-54.115 14.358-30.907 24.112-55.435 24.518-58.742.031-.291.071-3.18-8.024-13.271-5.275-6.576-12.146-13.915-17.667-19.811-3.458-3.693-6.369-6.803-8.326-9.108-4.196 4.36-13.083 19.285-20.382 31.544-21.001 35.272-38.835 63.558-54.362 71.497z"/><path d="M474.245 390.329c-12.505-1.516-51.158-55.074-54.189-64.674-3.032-9.6-20.716 38.905-15.158 63.663s26.779 64.674 31.326 70.737 45.602-68.807 38.021-69.726z" fill="#fff"/><path d="M436.909 464.402a4.787 4.787 0 0 1-3.885-1.946c-4.515-6.02-26.228-46.417-32.029-72.261-3.25-14.476 1.125-34.283 3.157-42.127 1.701-6.568 3.788-12.827 5.876-17.624 3.381-7.768 5.661-9.327 7.621-9.856 2.221-.598 5.114.355 6.221 3.863 1.243 3.935 10.942 18.908 22.874 34.103 16.725 21.298 25.459 27.499 27.983 27.805 2.323.281 4.042 2.085 4.38 4.594.968 7.174-10.821 29.662-15.935 38.998-6.365 11.62-17.964 31.491-24.139 34.02a5.6 5.6 0 0 1-2.125.432zm-18.603-133.024c-5.148 10.395-13.372 39.839-9.505 57.064 4.911 21.875 22.368 55.855 28.875 66.541 3.362-3.746 10.084-13.514 18.643-29.175 9.097-16.644 13.69-27.942 14.663-32.285-6.837-2.831-17.083-12.904-30.53-30.029-8.44-10.748-17.871-24.189-22.146-32.116zm55.458 62.922h.01z"/><path d="M568.603 156.898c8.589-1.011 21.221 11.116 22.737 37.389 1.516 26.274-10.611 38.4-18.695 43.453l-25.263 50.021c-4.547 7.579-47.495 68.211-70.232 72.758s-91.453-51.032-100.683-66.695-23.612-114.695-23.612-114.695c-4.547-29.305-9.853-96 57.6-111.158l158.147 88.926z" fill="#fff"/><path d="M474.316 364.777c-14.595 0-37.546-14.247-54.914-26.783-21.379-15.431-41.318-33.547-46.382-42.139-9.36-15.882-22.641-105.935-24.124-116.151a4 4 0 0 1 7.917-1.149c3.969 27.329 15.856 100.947 23.099 113.239 9.44 16.019 76.933 68.702 96.453 64.803 20.263-4.052 62.01-61.6 67.586-70.894a3.999 3.999 0 0 1 5.488-1.372 3.999 3.999 0 0 1 1.372 5.488c-2.479 4.131-14.647 21.514-28.675 38.046-18.807 22.166-33.679 34.472-44.202 36.577a18.48 18.48 0 0 1-3.618.336zm98.333-123.037a4 4 0 0 1-2.124-7.392c6.892-4.307 18.242-15.21 16.822-39.83-.802-13.908-5.193-25.492-11.745-30.989-2.277-1.91-4.656-2.88-6.531-2.659a4 4 0 1 1-.935-7.945c4.112-.484 8.591 1.105 12.608 4.475 8.331 6.989 13.649 20.35 14.59 36.656 1.658 28.738-12.175 41.829-20.568 47.075a3.98 3.98 0 0 1-2.116.608z"/><path d="M403.382 106.372s-62.147 111.663-63.663 114.189-14.653-10.105-14.653-20.716-2.021-76.295 0-86.905c2.021-10.611 49.516-87.411 60.632-87.916s32.842 3.537 32.842 3.537S495.845-1.25 511.003 4.814c15.158 6.063 95.495 94.989 99.032 98.526s-17.383 67.548-23.344 69.395-23.645-2.7-39.308.837-138.442-52.547-144-67.2z"/><path d="M339.055 224.882a5.74 5.74 0 0 1-1.539-.215c-5.417-1.5-16.449-13.937-16.449-24.823 0-2.469-.114-8.103-.258-15.234-.654-32.337-1.167-64.565.329-72.419 1.275-6.694 15.115-30.342 27.491-49.194 27.263-41.532 34.256-41.85 36.889-41.969 10.104-.458 27.952 2.564 32.634 3.397C433.446 18.563 497.057-5.074 512.49 1.1c9.412 3.765 39.444 33.345 94.511 93.09 3.021 3.277 5.406 5.865 5.863 6.322 1.992 1.991 2.414 5.064-.573 17.14-2.462 9.957-6.857 23.853-11.196 35.4-8.253 21.964-11.242 22.891-13.219 23.503-3.173.983-7.639.659-13.819.21-7.641-.554-17.149-1.245-25.792.708-.684.155-1.493.228-2.41.228-16.055.001-65.665-22.53-75.939-27.278-16.806-7.766-52.929-25.179-65.859-37.038-12.301 22.099-59.546 106.965-60.907 109.233-.872 1.453-2.391 2.263-4.094 2.263zm46.95-195.868c-2.478.765-12.125 9.937-31.441 39.521-14.118 21.624-24.806 41.151-25.568 45.153-1.465 7.69-.635 48.719-.189 70.76.145 7.177.26 12.846.26 15.396 0 5.913 5.556 12.919 8.823 15.827 7.919-14.113 42.773-76.705 61.998-111.246.753-1.353 2.232-2.127 3.771-2.025a4.032 4.032 0 0 1 3.464 2.552c1.521 3.879 23.077 18.312 66.24 38.252 36.955 17.072 64.692 26.562 72.058 26.563.431 0 .791-.032 1.081-.098 9.802-2.213 19.967-1.475 28.134-.883 4.106.297 8.34.605 10.361.247 1.769-2.104 6.553-11.873 12.983-31.174 5.882-17.653 8.416-29.271 8.467-32.488-.919-.98-2.578-2.778-5.328-5.761-65.697-71.277-86.074-88.874-91.6-91.084-9.978-3.99-60.216 12.459-89.538 23.766a3.991 3.991 0 0 1-2.171.2c-.212-.04-21.239-3.923-31.804-3.479zm220.414 75.798z"/><path d="M379.853 183.151c-.244 0-.504-.019-.782-.059a4.004 4.004 0 0 1-3.174-5.391c.108-.351.346-1.175.7-2.391 21.016-72.277 28.788-78.569 31.342-80.637a4.001 4.001 0 0 1 5.034 6.218c-1.965 1.591-9.843 11.82-28.694 76.652-.902 3.104-1.631 5.607-4.426 5.607zm3.782-4.021h.01zm21.259 37.348a3.989 3.989 0 0 1-1.786-.423c-3.869-1.934-16.581-3.25-23.685-3.625a4 4 0 0 1 .421-7.989c2.051.108 20.224 1.15 26.842 4.459a4 4 0 0 1-1.792 7.578zm59.122-8.59a4 4 0 0 1-2.501-7.123c5.399-4.319 29.456-11.457 34.223-12.844a4 4 0 0 1 2.235 7.681c-11.224 3.266-28.405 8.964-31.461 11.409-.737.59-1.62.877-2.496.877zm-59.383 38.379c-8.097 0-15.612-2.433-15.932-2.538a6 6 0 0 1 3.729-11.406c.062.02 6.211 1.979 12.421 1.943h.048a6 6 0 0 1 .046 11.999l-.311.001zm70.832-8.087a6.002 6.002 0 0 1-1.896-11.694c4.35-1.45 18.548-7.01 18.691-7.066a6.001 6.001 0 0 1 4.377 11.173c-.595.233-14.633 5.729-19.273 7.277a5.99 5.99 0 0 1-1.898.31zm-34.993 65.224c-1.377 0-2.217-.02-2.331-.023a4 4 0 0 1-3.895-4.102c.056-2.208 1.91-3.934 4.101-3.896 17.276.443 36.755-2.733 38.226-8.163a3.999 3.999 0 1 1 7.721 2.091c-1.854 6.844-10.258 11.105-25.693 13.029-7.438.927-14.574 1.063-18.131 1.063z"/><path d="M180.305 649.994a4 4 0 0 1-3.866-2.986l-11.368-43.326a4 4 0 1 1 7.738-2.03l11.368 43.326a4 4 0 0 1-3.872 5.016zm596.971 137.472s-36.379-104.084-37.895-110.147-18.189-24.253-23.242-37.895-16.168-60.126-15.663-65.179 61.137-58.611 68.716-57.095 21.726 18.695 21.726 18.695 16.168-9.6 21.726 0 19.2 38.905 16.168 49.516-22.737 65.179-21.221 69.726 27.128 47.339 27.128 47.339l-57.444 85.04z" fill="#fff"/><path d="M777.277 791.467a4.002 4.002 0 0 1-3.776-2.681c-1.488-4.257-36.457-104.327-38-110.497-.477-1.906-4.361-7.332-7.789-12.119-5.475-7.647-12.29-17.164-15.324-25.357-4.829-13.038-16.509-60.801-15.892-66.966.161-1.611.431-4.307 20.327-22.404 11.721-10.661 24.9-21.646 34.395-28.669 13.058-9.659 16.428-10.012 18.759-9.545 7.099 1.42 17.254 12.231 21.928 17.598 3.885-1.818 10.718-4.302 16.616-2.764 3.267.852 5.89 2.85 7.585 5.779 4.196 7.248 20.331 39.394 16.553 52.618-.929 3.251-3.255 10.146-6.2 18.875-5.175 15.336-14.724 43.638-14.947 48.797 1.75 4.015 15.417 27.067 27.791 47.38a4 4 0 1 1-6.832 4.162c-4.511-7.405-27.094-44.584-28.674-49.321-1.117-3.351.906-11.564 15.082-53.576 2.796-8.288 5.211-15.445 6.088-18.515 2.37-8.296-9.184-35.012-15.784-46.413-.634-1.094-1.458-1.724-2.672-2.043-4.321-1.134-11.412 2.218-13.556 3.482-1.696 1-3.872.62-5.124-.899-5.355-6.497-14.648-15.938-19.067-17.228-2.796.748-13.804 7.854-33.954 25.088-17.287 14.787-28.355 25.887-30.346 28.864.379 6.452 10.251 48.95 15.425 62.921 2.662 7.187 9.129 16.22 14.326 23.478 5.237 7.313 8.239 11.608 9.045 14.835 1.207 4.829 27.688 80.896 37.79 109.798a4 4 0 0 1-3.776 5.321zm-73.031-215.989z"/><path d="m119.056 512.094-11.253-29.806s9.968-22.572 13.192-39.055c3.355-17.155 1.966-38.25-.56-58.966 5.432 11.495 22.619 29.639 28.295 28.295 9.6-2.274-17.967-58.36-25.768-64.168-7.801-5.809-22.737-21.726-27.789-21.221-5.053.505-45.05 22.388-45.808 29.588-1.011 9.6-.697 146.749-.697 156.854s4.798 62.94 4.798 62.94l65.592-64.46z" fill="#fff"/><path d="M42.687 548.951C31.413 562.404-2.724 611.615 5.234 621.74c13.535 17.221 92.472-55.698 109.699-82.358 25.711-39.789 14.09-69.347-2.71-59.116 0 0-48.246 43.278-69.537 68.684z" fill="#fff"/><path d="M55.756 606.667a4 4 0 0 1-3.979-3.643c-.29-3.231-7.111-79.243-7.111-89.411 0-1.063-.003-3.536-.009-7.12-.134-95.116.104-144.232.728-150.154.215-2.042.718-6.822 23.214-20.316 7.902-4.74 21.996-12.416 26.174-12.833 4.386-.438 9.326 3.885 17.685 11.564 4.327 3.975 9.231 8.481 12.336 10.082a4 4 0 0 1-3.666 7.11c-4.059-2.093-8.927-6.566-14.082-11.301-3.823-3.512-9.545-8.77-11.674-9.453-6.183 1.444-39.463 20.627-42.05 26.192-.397 4.583-.825 34.518-.664 149.098.005 3.589.009 6.065.009 7.131 0 9.812 7.008 87.907 7.079 88.695a4 4 0 0 1-3.989 4.359zm-2.481-249.176z"/><path d="M11.419 628.342c-5.002 0-7.825-2.215-9.329-4.13-1.712-2.178-6.921-8.806 10.316-41.997 8.155-15.703 19.257-33.053 25.273-39.5a4 4 0 1 1 5.848 5.459c-4.801 5.144-15.35 21.03-24.022 37.728C7.314 609.376 7.34 617.946 8.379 619.268c.254.323.927 1.175 3.484 1.063 21.591-.999 84.939-60.261 99.71-83.12 17.049-26.384 16.449-47.449 10.676-53.378-.754-.775-3.049-3.132-7.945-.15a4 4 0 1 1-4.161-6.833c6.476-3.944 13.144-3.42 17.838 1.402 9.324 9.577 8.991 34.395-9.688 63.301-14.85 22.981-79.589 85.545-106.06 86.77-.278.013-.549.02-.814.02z"/><path d="M126.498 535.804a4.003 4.003 0 0 1-3.743-2.588L104.06 483.7a4.002 4.002 0 0 1 .083-3.029c.098-.222 9.826-22.363 12.926-38.208 3.512-17.955 1.521-40.275-.605-57.714a4 4 0 0 1 7.587-2.193c4.978 10.534 22.616 25.764 27.983 28.447a4 4 0 1 1-3.577 7.155c-4.777-2.388-14.67-10.471-22.445-19.197 1.27 14.779 1.653 31.012-1.091 45.037-2.824 14.441-10.491 32.983-12.803 38.39l18.122 48a4 4 0 0 1-3.741 5.414z"/></svg></g><g transform="translate(39.473684210526315 1391.0526315789473) rotate(0.0 1466.0526315789475 222.63157894736844) scale(1.5747074453049918 1.5727233992241234)"><svg width="1862" height="283.116" viewBox="0 0 1862 283.116"><path d="M713.984 279.116h-428.72L233.642 4h428.72z" fill="#fff"/><path d="M713.984 283.116h-428.72a4 4 0 0 1-3.931-3.262L229.711 4.738A4.001 4.001 0 0 1 233.642 0h428.72a4 4 0 0 1 3.931 3.262l51.622 275.116a4.001 4.001 0 0 1-3.931 4.738zm-425.401-8h420.581L659.043 8H238.462z"/><path d="M1858 283.116H4a4 4 0 0 1 0-8h1854a4 4 0 0 1 0 8z"/></svg></g></svg>