<svg xmlns="http://www.w3.org/2000/svg" viewBox="0 0 2750 3000" width="2750" height="3000"><g transform="translate(67.5 190.0) rotate(0.0 1168.75 1376.25) scale(2.517612517084761 2.5162907543112905)"><svg width="928.459" height="1093.872" viewBox="0 0 928.459 1093.872"><path d="M452.245 4.384C429.17 8.202 333.813 84.428 331.363 98.313s-8.984 126.599-4.084 142.118 93.801 58.16 113.467 56.442 147.868-52.383 159.181-55.896c26.086-8.1 40.99-81.406 40.448-100.736-.464-16.532-35.393-82.766-46.011-93.384C583.745 36.238 479.453-.118 452.245 4.384z"/><path d="M439.569 300.92c-12.867 0-41.536-11.775-62.853-22.212-14.776-7.235-49.544-25.329-53.252-37.073-5.325-16.864 1.741-131.447 3.959-144.018 2.061-11.672 45.487-46.354 54.173-53.188 25.212-19.838 56.84-41.813 69.995-43.991 17.885-2.961 61.313 9.995 79.152 15.702 27.308 8.736 59.749 21.189 66.447 27.887 11.11 11.11 46.687 78.455 47.182 96.1.544 19.365-14.133 95.624-43.259 104.668-2.922.907-14.786 5.401-29.807 11.091-58.328 22.094-116.43 43.766-130.213 44.97-.479.042-.989.063-1.525.063zM452.898 8.33c-9.433 1.561-36.024 18.536-66.172 42.242-33.765 26.55-50.646 44.6-51.425 48.439-2.313 13.107-8.811 125.64-4.208 140.215 1.528 4.842 18.899 17.49 49.141 32.297 26.735 13.09 52.027 22.078 60.165 21.365 13.833-1.208 88.149-29.359 128.075-44.482 15.739-5.962 27.112-10.27 30.267-11.25 22.956-7.128 38.19-77.032 37.636-96.803-.433-15.421-34.854-80.68-44.842-90.668-4.029-4.029-29.349-15.086-63.229-25.925-35.464-11.345-64.356-17.258-75.408-15.429zm-.653-3.946h.01z"/><path d="m459.596 272.285-8.985 124.149 110.264 7.351 6.132-128.174z" fill="#fff"/><path d="M560.875 407.785c-.089 0-.177-.003-.266-.009l-110.264-7.351a4 4 0 0 1-3.724-4.28l8.984-124.149a3.998 3.998 0 0 1 4.113-3.709l107.411 3.326a3.998 3.998 0 0 1 3.871 4.189l-6.132 128.174a4.003 4.003 0 0 1-3.995 3.808zM454.892 392.71l102.183 6.813 5.743-120.04-99.509-3.081-8.417 116.309z"/><path d="M382.003 115.465c-.069 21.236 32.555 151.558 49.006 172.339 15.519 19.602 84.4 49.336 104.819 43.619s61.907-64.218 65.069-84.457c4.084-26.137-14.702-156.003-24.503-175.606-5.946-11.892-49.823-51.457-111.898-38.388-56.407 11.875-82.447 67.868-82.494 82.494z" fill="#fff"/><path d="M529.562 336.131c-27.902 0-87.142-27.469-101.688-45.845-17.265-21.808-49.938-153.973-49.871-174.834.052-15.932 26.858-74.014 85.67-86.395 65.171-13.718 110.073 28.062 116.3 40.514 5.739 11.478 13.197 53.814 17.841 86.58 4.902 34.595 9.325 76.781 7.036 91.432-3.254 20.823-45.395 81.378-67.943 87.691-2.085.584-4.559.858-7.344.858zm-143.56-220.653c-.063 19.788 32.102 149.58 48.143 169.843 14.927 18.854 82.612 47.285 100.604 42.25 8.223-2.303 22.354-15.837 36.877-35.322 13.519-18.136 23.93-37.011 25.318-45.901 4.142-26.505-15.358-155.659-24.129-173.199-5.422-10.845-47.739-48.844-107.495-36.263-54.583 11.491-79.276 65.89-79.318 78.593z"/><path d="M394.678 180.087s-25.946-22.305-32.911.684c-9.167 30.255 51.035 63.556 51.035 63.556l-18.123-64.24z" fill="#fff"/><path d="M412.8 248.327a4.002 4.002 0 0 1-1.936-.5c-2.573-1.424-62.917-35.245-52.927-68.216 2.569-8.479 7.507-11.539 11.196-12.613 11.944-3.477 26.527 8.66 28.15 10.055a4 4 0 0 1 1.242 1.947l18.124 64.24a4.001 4.001 0 0 1-3.85 5.086zm-39.102-73.956c-.82 0-1.603.097-2.335.311-.969.283-3.919 1.145-5.769 7.25-5.733 18.924 22.284 41.863 40.608 53.738l-15.034-53.287c-3.557-2.807-11.475-8.011-17.471-8.011z"/><path d="M595.141 167.606c-1.219-10.403 14.559-36.89 26.992-27.094 22.461 17.697-3.403 75.96-21.258 80.309-1.314-16.441-4.516-42.812-5.735-53.215z" fill="#fff"/><path d="M600.875 224.821a4 4 0 0 1-3.988-3.682c-1.154-14.437-3.796-36.781-5.215-48.786l-.505-4.282c-1.043-8.898 7.326-25.812 17.645-31.584 5.533-3.097 11.145-2.782 15.796.883 9.474 7.464 12.529 21.516 8.603 39.568-4.451 20.461-18.126 44.539-31.39 47.769-.313.076-.63.114-.946.114zm15.449-82.446c-1 0-2.185.299-3.605 1.094-7.775 4.35-14.253 18.136-13.604 23.672l.504 4.274c1.242 10.508 3.417 28.904 4.728 43.115 7.657-6.063 17.305-22.081 21.049-39.292 1.877-8.628 3.628-24.206-5.736-31.583-.831-.655-1.89-1.279-3.334-1.279zM491.736 21.793c-9.801 13.628-83.597 135.091-109.733 142.152-26.137 7.061-33.487-66.158 12.252-103.875s97.482-38.277 97.482-38.277z"/><path d="M378.518 168.428c-6.522 0-12.242-4.025-16.113-11.521-5.84-11.307-6.883-29.425-2.723-47.284 4.878-20.936 16.252-39.631 32.027-52.64 46.297-38.176 97.813-39.167 99.983-39.19h.043a4 4 0 0 1 3.247 6.335c-1.677 2.333-5.377 8.061-10.497 15.99-40.745 63.093-81.234 122.23-101.44 127.688a17.314 17.314 0 0 1-4.527.622zM483.826 26.42c-15.995 1.835-53.381 8.992-87.026 36.736-31.599 26.056-37.267 70.755-27.287 90.08 2.989 5.789 6.844 8.09 11.447 6.847 4.695-1.269 16.98-9.429 46.501-49.834 19.045-26.066 38.613-56.367 50.306-74.471 2.324-3.6 4.359-6.751 6.06-9.358zm-38.931 111.015a4 4 0 0 1-3.811-5.22c6.627-20.71 61.055-102.868 63.368-106.355a4 4 0 0 1 6.666 4.422c-.561.845-56.123 84.71-62.415 104.371a4.001 4.001 0 0 1-3.809 2.782z"/><path d="M483.156 66.161c-5.263 8.374 44.451 5.929 76.039.821 4.676-.756 34.483 88.504 34.483 88.504s10.957-64.993-5.032-95.562C571.908 27.925 507.101 29 500.762 38.768s-11.841 18.219-17.605 27.393z"/><path d="M593.676 159.487a4 4 0 0 1-3.792-2.733c-12.409-37.158-27.231-77.679-32.029-85.51-14.363 2.221-31.75 3.849-45.909 4.283-28.281.864-30.948-3.168-32.233-5.107-1.271-1.919-1.25-4.307.057-6.387 5.289-8.415 10.267-16.085 16.03-24.967l1.606-2.475c4.342-6.691 21.144-8.351 34.228-7.737 10.888.51 47.433 4.125 60.557 29.216 16.425 31.4 5.889 95.373 5.433 98.081a4.002 4.002 0 0 1-3.947 3.335zm-34.227-96.53c3.318 0 5.584 3.516 10.798 15.993 3.079 7.369 7.017 17.678 11.705 30.64a1985.057 1985.057 0 0 1 9.917 28.156c2.047-21.027 3.493-56.352-6.767-75.969-10.786-20.619-42.489-24.216-51.949-24.827-17.879-1.155-27.881 2.344-29.038 3.998l-1.604 2.472c-5.306 8.175-9.943 15.321-14.761 22.953 8.514 2.404 41.278 1.435 70.807-3.34a5.56 5.56 0 0 1 .893-.076z"/><path d="M482.774 116.199a4 4 0 0 1-3.918-4.826c3.044-14.438 28.183-58.49 30.419-62.141a3.999 3.999 0 1 1 6.822 4.177c-4.339 7.088-26.942 47.895-29.413 59.615a4.002 4.002 0 0 1-3.91 3.176zm-28.559 230.436 108.929 9.729-2.269 47.421-110.264-7.351z"/><path d="M560.875 407.785c-.089 0-.177-.003-.266-.009l-110.264-7.351a4 4 0 0 1-3.724-4.28l3.604-49.798a3.996 3.996 0 0 1 4.344-3.696l108.929 9.729a4 4 0 0 1 3.64 4.175l-2.269 47.421a3.999 3.999 0 0 1-3.995 3.809zM454.892 392.71l102.183 6.813 1.891-39.516-101.054-9.026z"/><path d="M546.99 388.266s69.426-30.221 93.112-23.686c23.686 6.534 243.33 297.781 256.398 314.933s-46.556 57.308-65.342 51.457c-22.935-7.144-292.336-219.371-292.336-219.371l8.168-123.332z"/><path d="M835.349 735.522c-1.972 0-3.777-.235-5.38-.734-23.371-7.28-282.598-211.364-293.622-220.048a4 4 0 0 1-1.516-3.406l8.168-123.333a3.998 3.998 0 0 1 2.395-3.403c2.888-1.257 71.01-30.708 95.771-23.875 4.226 1.166 15.45 4.262 124.184 142.064 37.267 47.23 81.081 104.052 130.228 168.889 1.977 2.608 3.369 4.445 4.105 5.412 3.003 3.941 5.007 10.888-2.498 21.606-11.939 17.052-43.75 36.827-61.835 36.827zM542.953 509.76c75.989 59.834 271.292 211.751 289.395 217.39 11.59 3.615 46.456-16.152 58.282-33.044 2.613-3.732 5.2-8.872 2.688-12.17-.738-.969-2.135-2.812-4.118-5.427-49.114-64.796-92.897-121.577-130.132-168.766-96.672-122.516-116.146-138.236-120.03-139.308-17.639-4.864-67.626 13.787-88.219 22.538z"/><path d="M889.552 530.279c-26.567-70.987-69.69-152.158-72.006-161.924-3.267-13.777-17.969-74.218-18.786-82.385-.817-8.168-62.551-38.359-88.211-73.919-5.348-7.412-15.178 7.653-6.602 19.496 6.738 9.305 34.402 36.259 51.363 49.76 4.266 3.396 2.389 10.232-3.005 11.033-9.327 1.385-22.568 4.861-37.995 19.3-7.913 7.406 19.042 56.237 30.951 65.701 7.351 5.841 23.619 12.66 31.446 15.11 4.424 5.309 28.806 161.045 28.806 161.045s94.947 5.93 84.039-23.217z" fill="#fff"/><path d="M869.73 740.818c-15.69 0-33.729-2.103-40.692-6.457-3.606-2.256-12.054-7.538-30.486-153.246-8.999-71.143-16.046-141.918-16.116-142.625a4 4 0 0 1 7.961-.79c.068.694 6.987 70.179 15.861 140.582 16.409 130.181 24.849 147.241 27.097 149.341 4.669 2.839 21.276 5.605 40.231 5.148 19.372-.467 34.093-4.258 37.502-9.656 8.791-13.918 15.935-56.88-.415-118.192-10.725-40.217-48.341-124.377-73.232-180.067-14.847-33.217-22.647-50.774-23.786-55.579-.501-2.11-1.27-5.315-2.216-9.26-8.121-33.865-15.732-66.09-16.614-73.263-1.549-2.44-11.396-8.867-20.104-14.553-20.8-13.578-52.232-34.098-67.539-57.994-1.191-1.86-.649-4.334 1.211-5.526s4.333-.65 5.525 1.211c14.381 22.45 44.948 42.405 65.176 55.61 17.203 11.23 23.177 15.354 23.648 20.068.664 6.646 11.745 52.851 16.478 72.582.947 3.953 1.718 7.165 2.22 9.279 1.019 4.296 11.347 27.404 23.306 54.16 24.996 55.923 62.77 140.435 73.659 181.27 15.929 59.737 10.88 106.426-.552 124.525-6.874 10.884-30.563 13.056-44.073 13.382-1.324.032-2.679.048-4.048.048z"/><path d="M779.973 318.557c-.495 0-.997-.092-1.484-.287-2.998-1.199-7.116-3.453-11.885-6.063-7.979-4.367-18.906-10.348-24.533-10.817a5.015 5.015 0 0 0-.412-.016c-5.917 0-20.144 9.411-28.584 16.284a4 4 0 0 1-5.053-6.202c3.892-3.171 23.894-18.948 34.713-18.037 7.316.61 18.151 6.54 27.71 11.772 4.353 2.382 8.464 4.632 11.015 5.653a4 4 0 0 1-1.486 7.714zm-.004 28.178a3.98 3.98 0 0 1-2.052-.569c-9.089-5.444-35.46-17.889-48.147-10.218a4 4 0 1 1-4.138-6.845c19.397-11.731 54.897 9.302 56.4 10.203a3.998 3.998 0 0 1 1.372 5.486 3.999 3.999 0 0 1-3.435 1.944zm-3.264 25.621c-.51 0-1.028-.098-1.529-.305-11.929-4.94-27.252-9.235-31.215-7.56a4 4 0 1 1-3.117-7.367c8.828-3.732 30.853 4.826 37.395 7.538a3.999 3.999 0 0 1-1.533 7.696zm-464.128 26.528c-20.56 69.61-103.73 427.171-124.966 579.09H496.35s23.217-107.405 31.854-138.851c7.799-28.398 80.044-136.401 87.394-160.904 6.016-20.053 0-258.508-.817-276.477s-292.869-34.469-302.205-2.859z"/><path d="M496.35 981.975H187.611a4 4 0 0 1-3.962-4.554c21.85-156.306 105.791-514.325 125.092-579.67 2.148-7.275 12.778-12.251 33.451-15.662 16.579-2.735 39.052-4.376 66.795-4.879 49.475-.895 110.381 2.04 155.165 7.48 15.831 1.923 28.39 4.019 37.325 6.229 12.24 3.028 17.091 6.011 17.302 10.643.526 11.597 7.119 256.25.651 277.808-3.605 12.019-21.52 42.174-40.484 74.1-20.11 33.851-42.903 72.219-46.884 86.714-8.509 30.98-31.57 137.564-31.802 138.637a4 4 0 0 1-3.91 3.155zm-304.132-8h300.906c3.912-18.008 23.49-107.758 31.223-135.91 4.267-15.535 26.357-52.72 47.721-88.681 17.884-30.105 36.377-61.236 39.7-72.313 5.673-18.911.018-250.63-.949-274.391-5.169-4.33-43.626-11.874-116.002-15.751-53.672-2.875-123.696-3.188-159.258 4.556-16.912 3.683-18.916 7.754-19.146 8.532l-3.836-1.133 3.836 1.133c-19.076 64.589-101.433 415.68-124.194 573.957z"/><g fill="#fff"><path d="M152.713 810.886s18.326 16.88 35.751 15.246c17.424-1.634 30.403-13.559 42.947-19.525 9.071-4.314 25.104 44.863 13.669 51.398-11.435 6.534-49.623 32.925-66.383 32.925-14.641 0-41.548-10.161-47.538-19.962s21.553-60.081 21.553-60.081z"/><path d="M178.698 894.929c-14.498 0-43.7-10.011-50.95-21.876-2.253-3.686-3.348-11.272 8.288-37.428 6.134-13.787 13.1-26.534 13.17-26.661a4.003 4.003 0 0 1 2.86-2.026 3.994 3.994 0 0 1 3.357 1.005c.3.273 17.293 15.642 32.668 14.206 11.197-1.05 20.524-6.774 29.545-12.309 4.139-2.54 8.048-4.939 12.058-6.846 3.397-1.615 8.674-1.192 14.521 9.998 7.038 13.468 14.22 41.989 2.851 48.485-2.155 1.232-5.429 3.277-9.219 5.646-22.518 14.07-45.633 27.806-59.148 27.806zm-24.756-77.838c-2.52 4.815-6.735 13.104-10.606 21.81-11.27 25.337-8.869 29.803-8.762 29.981 4.845 7.928 29.587 18.048 44.124 18.048 12.353 0 40.036-17.298 54.909-26.591 4.021-2.512 7.196-4.497 9.489-5.807.917-.524 2.468-3.561 1.776-11.306-1.343-15.016-8.875-30.789-12.23-32.772-3.472 1.694-7.047 3.888-10.822 6.205-9.343 5.734-19.933 12.233-32.982 13.456-14.085 1.32-28.222-7.89-34.896-13.024z"/><path d="M204.449 833.633a7.5 7.5 0 0 1-3.898-13.912c.161-.098 16.318-9.903 32.801-19.582 35.011-20.558 37.112-20.558 39.772-20.558 3.371 0 7.124 1.565 13.938 4.407 6.936 2.893 16.435 6.855 27.392 9.674a7.5 7.5 0 1 1-3.736 14.527c-12.001-3.087-22.074-7.289-29.43-10.357-2.688-1.121-5.911-2.465-7.655-3.028-7.386 3.288-38.052 21.197-65.299 37.738a7.468 7.468 0 0 1-3.885 1.09z"/><path d="M318.495 853.975a7.466 7.466 0 0 1-4.028-1.179c-17.456-11.14-37.104-23.525-42.022-26.376-5.359.079-25.196 4.077-41.551 7.978a7.5 7.5 0 0 1-3.48-14.591c44.311-10.571 48.391-8.528 50.834-7.308 4.22 2.11 37.634 23.405 44.29 27.652a7.5 7.5 0 0 1-4.042 13.823z"/><path d="M308.375 871.631a7.467 7.467 0 0 1-4.639-1.611c-11.108-8.742-44.324-30.726-64.401-27.481-4.093.662-7.939-2.117-8.601-6.206s2.116-7.94 6.206-8.601c30.138-4.878 71.472 26.873 76.083 30.51a7.5 7.5 0 0 1-4.649 13.389z"/><path d="M291.629 883.882c-1.392 0-2.8-.387-4.058-1.198-16.385-10.565-43.613-24.861-52.892-23.574-4.095.569-7.892-2.291-8.463-6.394s2.292-7.891 6.395-8.463c18.053-2.515 55.723 21.072 63.092 25.825a7.501 7.501 0 0 1-4.075 13.803z"/></g><path d="M471.031 381.732s-96.616-58.753-115.437-52.223C320.28 341.761 6.494 536.202 4.044 576.224c-2.45 40.022 99.936 290.202 130.157 305.721 15.519-23.686 32.736-67.978 32.736-67.978l-52.832-199.289 247.039-120.306 109.887-112.639z"/><path d="M134.197 885.946a3.987 3.987 0 0 1-1.824-.442c-21.566-11.075-66.067-114.31-79.192-145.687C25.756 674.258-1.308 598.173.051 575.98c.412-6.744 6.305-19.949 52.504-56.6 27.697-21.973 66.678-49.726 112.729-80.261 85.19-56.486 171.55-107.335 188.998-113.389 5.75-1.995 19.051-1.69 67.943 23.898 26.316 13.772 50.642 28.539 50.884 28.686a4.002 4.002 0 0 1 .786 6.211L364.007 497.164c-.321.33-.698.601-1.112.803l-244.08 118.865 51.988 196.109a3.998 3.998 0 0 1-.138 2.474c-.71 1.824-17.549 44.957-33.119 68.721a4 4 0 0 1-3.349 1.808zM359.157 333c-1.134 0-1.834.143-2.253.288-17.006 5.9-102.483 56.327-187.198 112.498C21.085 544.33 8.387 570.726 8.036 576.469 6.963 594.008 29.053 661.408 60.56 736.73c30.426 72.733 58.729 126.99 72.519 139.505 13.085-21.38 26.94-55.678 29.654-62.513l-52.495-198.019a4 4 0 0 1 2.115-4.621l246.413-120.001 105.867-108.518c-8.114-4.823-26.581-15.623-46.149-25.863-39.324-20.577-54.035-23.699-59.327-23.699z"/><path d="M187.611 977.975c-6.806 53.09-6.806 111.898-6.806 111.898h349.578l-34.032-111.898z" fill="#fff"/><path d="M530.382 1093.872H180.805a4 4 0 0 1-4-4c0-.591.078-59.673 6.838-112.406a4 4 0 0 1 3.968-3.491H496.35a4 4 0 0 1 3.827 2.836l34.032 111.898a4.001 4.001 0 0 1-3.827 5.163zm-345.549-8h340.151l-31.6-103.898H191.142c-5.296 43.391-6.166 90.16-6.309 103.898zm274.762-926.384c-.479 0-.967-.087-1.44-.27-6.229-2.397-24.553-7.597-34.419-2.926a4 4 0 1 1-3.424-7.23c14.991-7.101 39.682 2.29 40.726 2.694a4 4 0 0 1-1.442 7.732zm3.811 28.756a3.972 3.972 0 0 1-1.539-.31c-11.399-4.759-28.283-.284-28.451-.238a4.001 4.001 0 0 1-2.09-7.723c.8-.216 19.725-5.225 33.623.578a4 4 0 0 1-1.543 7.692zm73.354-8.457a3.997 3.997 0 0 1-2.822-6.833c.586-.584 14.537-14.317 29.484-16.17a4.001 4.001 0 0 1 .984 7.94c-12.209 1.513-24.704 13.78-24.828 13.904-.78.773-1.8 1.16-2.818 1.16zm-13.459 85.336a3.984 3.984 0 0 1-1.761-.411c-14.497-7.121-44.896-7.213-45.202-7.213a4 4 0 0 1 .001-8c1.322 0 32.562.091 48.729 8.033a4 4 0 0 1-1.767 7.591zm4.356-117.888a4 4 0 0 1-3.13-6.488c.66-.831 16.372-20.327 33.194-17.521a4 4 0 0 1 3.288 4.603 3.997 3.997 0 0 1-4.603 3.288c-10.161-1.691-21.934 9.969-25.614 14.605a3.996 3.996 0 0 1-3.136 1.513zm386.812 578.017c9.801-15.519 16.403-60.101.067-121.358-5.722-21.456-18.059-55.668-31.813-91.655-25.838-9.92-60.948 2.014-79.764 19.647 10.587 90.849 17.708 192.523 28.199 199.083 12.114 7.575 73.509 9.801 83.311-5.717z"/><path d="M869.731 740.818c-15.691 0-33.73-2.103-40.693-6.457-4.198-2.626-7.751-10.907-12.479-44.029-3.326-23.303-6.553-54.475-9.97-87.477-2.398-23.169-4.879-47.127-7.603-70.506a4.004 4.004 0 0 1 1.237-3.382c19.604-18.371 56.36-31.049 83.934-20.463a3.999 3.999 0 0 1 2.303 2.306c16.46 43.068 26.908 73.178 31.941 92.052 15.929 59.733 10.88 106.423-.551 124.525-6.874 10.884-30.563 13.056-44.073 13.382-1.324.032-2.678.048-4.047.048zm-36.389-13.202c4.654 2.842 21.296 5.612 40.243 5.156 19.372-.467 34.093-4.258 37.502-9.656 8.791-13.918 15.935-56.88-.416-118.191-4.894-18.353-15.048-47.656-31.03-89.548-23.498-7.976-55.078 2.827-72.471 18.091 2.637 22.779 5.045 46.043 7.377 68.563 3.347 32.325 6.507 62.858 9.746 85.857 4.567 32.442 7.829 38.599 9.049 39.728zM177.27 901.911c-20.353 0-39.58-9.802-49.793-20.037a4 4 0 1 1 5.662-5.651c13.041 13.069 42.658 25.396 67.667 11.891a4 4 0 1 1 3.801 7.039c-8.861 4.785-18.214 6.757-27.337 6.757z"/></svg></g><g transform="translate(1735.0 80.0) rotate(0.0 463.75 158.75) scale(2.499784385174325 2.4879910353960804)"><svg width="371.032" height="127.613" viewBox="0 0 371.032 127.613"><rect fill="#fff" height="119.613" rx="16.767" width="363.032" x="4" y="4"/><path d="M350.265 127.613H20.767C9.316 127.613 0 118.297 0 106.846V20.767C0 9.316 9.316 0 20.767 0h329.498c11.451 0 20.767 9.316 20.767 20.768v86.079c0 11.451-9.316 20.767-20.767 20.767zM20.767 8C13.727 8 8 13.728 8 20.768v86.079c0 7.039 5.727 12.767 12.767 12.767h329.498c7.04 0 12.767-5.728 12.767-12.767v-86.08c0-7.04-5.727-12.768-12.767-12.768H20.767z"/><path d="M78.56 87.416 55.256 99.668l4.451-25.95-18.854-18.377 26.055-3.786 11.652-23.61 11.653 23.61 26.055 3.786-18.854 18.377 4.451 25.95z"/><path d="M55.256 103.668a4 4 0 0 1-3.943-4.676l4.095-23.878-17.348-16.91a4 4 0 0 1 2.217-6.823l23.974-3.484 10.722-21.724a4 4 0 0 1 7.174 0l10.722 21.724 23.974 3.484a4 4 0 0 1 2.217 6.823l-17.348 16.91 4.095 23.878a4 4 0 0 1-5.803 4.216L78.561 91.936l-21.443 11.273a3.99 3.99 0 0 1-1.861.459zm-5.807-45.535 13.05 12.721a3.997 3.997 0 0 1 1.15 3.54l-3.081 17.962 16.131-8.48a4.007 4.007 0 0 1 3.723 0l16.13 8.479-3.081-17.962a4 4 0 0 1 1.15-3.54l13.05-12.721-18.035-2.621a3.996 3.996 0 0 1-3.012-2.188l-8.065-16.342-8.065 16.342a3.999 3.999 0 0 1-3.012 2.188l-18.035 2.621z"/><path d="m185.516 87.416-23.305 12.252 4.451-25.95-18.854-18.377 26.056-3.786 11.652-23.61 11.652 23.61 26.055 3.786-18.853 18.377 4.45 25.95z" fill="#fff"/><path d="M208.82 103.668a3.993 3.993 0 0 1-1.861-.459l-21.443-11.273-21.443 11.272a4 4 0 0 1-5.803-4.216l4.095-23.878-17.348-16.91a4 4 0 0 1 2.217-6.823l23.975-3.484 10.721-21.724a4 4 0 0 1 7.174 0l10.722 21.724 23.974 3.484a3.998 3.998 0 0 1 2.217 6.823l-17.348 16.91 4.095 23.878a4 4 0 0 1-3.943 4.676zm-23.304-20.251a4 4 0 0 1 1.861.459l16.131 8.48-3.081-17.962a4 4 0 0 1 1.15-3.54l13.05-12.721-18.035-2.621a3.996 3.996 0 0 1-3.012-2.188l-8.065-16.342-8.065 16.342a3.999 3.999 0 0 1-3.012 2.188l-18.035 2.621 13.05 12.721a3.997 3.997 0 0 1 1.15 3.54l-3.081 17.962 16.13-8.479a3.991 3.991 0 0 1 1.861-.46z"/><path d="m292.471 87.416-23.304 12.252 4.45-25.95-18.853-18.377 26.055-3.786 11.652-23.61 11.652 23.61 26.056 3.786-18.854 18.377 4.451 25.95z" fill="#fff"/><path d="M315.775 103.668a3.993 3.993 0 0 1-1.861-.459l-21.443-11.273-21.443 11.273a4 4 0 0 1-5.803-4.217l4.096-23.878-17.348-16.91a4 4 0 0 1 2.217-6.823l23.974-3.484 10.722-21.724a4 4 0 0 1 7.174 0l10.722 21.724 23.974 3.484a4 4 0 0 1 2.217 6.823l-17.348 16.91 4.096 23.878a4 4 0 0 1-3.943 4.676zm-23.304-20.251a4 4 0 0 1 1.861.459l16.131 8.48-3.081-17.962a4 4 0 0 1 1.15-3.54l13.05-12.721-18.035-2.621a3.996 3.996 0 0 1-3.012-2.188l-8.065-16.342-8.065 16.342a3.999 3.999 0 0 1-3.012 2.188l-18.035 2.621 13.05 12.721a3.997 3.997 0 0 1 1.15 3.54l-3.081 17.962 16.131-8.48a4.002 4.002 0 0 1 1.861-.459z"/></svg></g></svg>